<?xml version="1.0" encoding="UTF-8" standalone="no"?>
<!-- Created with Inkscape (http://www.inkscape.org/) -->

<svg
   xmlns:dc="http://purl.org/dc/elements/1.1/"
   xmlns:cc="http://creativecommons.org/ns#"
   xmlns:rdf="http://www.w3.org/1999/02/22-rdf-syntax-ns#"
   xmlns:svg="http://www.w3.org/2000/svg"
   xmlns="http://www.w3.org/2000/svg"
   xmlns:sodipodi="http://sodipodi.sourceforge.net/DTD/sodipodi-0.dtd"
   xmlns:inkscape="http://www.inkscape.org/namespaces/inkscape"
   width="187mm"
   height="130mm"
   viewBox="0 0 662.59836 460.62967"
   id="svg4925"
   version="1.1"
   inkscape:version="0.91 r13725"
   sodipodi:docname="lexicon_pres.svg">
  <defs
     id="defs4927" />
  <sodipodi:namedview
     id="base"
     pagecolor="#ffffff"
     bordercolor="#666666"
     borderopacity="1.0"
     inkscape:pageopacity="0.0"
     inkscape:pageshadow="2"
     inkscape:zoom="1.979899"
     inkscape:cx="428.69927"
     inkscape:cy="223.55949"
     inkscape:document-units="px"
     inkscape:current-layer="g5959"
     showgrid="false"
     inkscape:window-width="2560"
     inkscape:window-height="1353"
     inkscape:window-x="0"
     inkscape:window-y="0"
     inkscape:window-maximized="1" />
  <metadata
     id="metadata4930">
    <rdf:RDF>
      <cc:Work
         rdf:about="">
        <dc:format>image/svg+xml</dc:format>
        <dc:type
           rdf:resource="http://purl.org/dc/dcmitype/StillImage" />
        <dc:title></dc:title>
      </cc:Work>
    </rdf:RDF>
  </metadata>
  <g
     inkscape:label="Layer 1"
     inkscape:groupmode="layer"
     id="layer1"
     transform="translate(0,-591.73269)">
    <g
       id="g5959"
       transform="translate(-52.609151,586.79197)">
      <text
         sodipodi:linespacing="100%"
         id="text5621"
         y="168.86067"
         x="75.353081"
         style="font-style:normal;font-variant:normal;font-weight:normal;font-stretch:normal;font-size:20px;line-height:100%;font-family:Dingbats;-inkscape-font-specification:'Dingbats, Normal';text-align:start;letter-spacing:0px;word-spacing:0px;writing-mode:lr-tb;text-anchor:start;fill:#000000;fill-opacity:1;stroke:none;stroke-width:1px;stroke-linecap:butt;stroke-linejoin:miter;stroke-opacity:1"
         xml:space="preserve"><tspan
           y="168.86067"
           x="75.353081"
           id="tspan5623"
           sodipodi:role="line"
           style="font-style:normal;font-variant:normal;font-weight:normal;font-stretch:normal;font-family:helvetica;-inkscape-font-specification:helvetica">Baseline</tspan></text>
      <text
         sodipodi:linespacing="100%"
         id="text5621-1"
         y="166.61458"
         x="231.47609"
         style="font-style:normal;font-variant:normal;font-weight:normal;font-stretch:normal;font-size:20px;line-height:100%;font-family:Dingbats;-inkscape-font-specification:'Dingbats, Normal';text-align:start;letter-spacing:0px;word-spacing:0px;writing-mode:lr-tb;text-anchor:start;fill:#000000;fill-opacity:1;stroke:none;stroke-width:1px;stroke-linecap:butt;stroke-linejoin:miter;stroke-opacity:1"
         xml:space="preserve"><tspan
           y="166.61458"
           x="231.47609"
           id="tspan5623-8"
           sodipodi:role="line"
           style="font-style:normal;font-variant:normal;font-weight:normal;font-stretch:normal;font-family:helvetica;-inkscape-font-specification:helvetica">Deep</tspan></text>
      <text
         sodipodi:linespacing="100%"
         id="text5621-1-7"
         y="168.86067"
         x="349.58487"
         style="font-style:normal;font-variant:normal;font-weight:normal;font-stretch:normal;font-size:20px;line-height:100%;font-family:Dingbats;-inkscape-font-specification:'Dingbats, Normal';text-align:start;letter-spacing:0px;word-spacing:0px;writing-mode:lr-tb;text-anchor:start;fill:#000000;fill-opacity:1;stroke:none;stroke-width:1px;stroke-linecap:butt;stroke-linejoin:miter;stroke-opacity:1"
         xml:space="preserve"><tspan
           y="168.86067"
           x="349.58487"
           id="tspan5623-8-9"
           sodipodi:role="line"
           style="font-style:normal;font-variant:normal;font-weight:normal;font-stretch:normal;font-family:helvetica;-inkscape-font-specification:helvetica">Shallow</tspan></text>
      <text
         sodipodi:linespacing="100%"
         id="text5621-1-7-2"
         y="168.55305"
         x="484.20074"
         style="font-style:normal;font-variant:normal;font-weight:normal;font-stretch:normal;font-size:20px;line-height:100%;font-family:Dingbats;-inkscape-font-specification:'Dingbats, Normal';text-align:start;letter-spacing:0px;word-spacing:0px;writing-mode:lr-tb;text-anchor:start;fill:#000000;fill-opacity:1;stroke:none;stroke-width:1px;stroke-linecap:butt;stroke-linejoin:miter;stroke-opacity:1"
         xml:space="preserve"><tspan
           y="168.55305"
           x="484.20074"
           id="tspan5623-8-9-0"
           sodipodi:role="line"
           style="font-style:normal;font-variant:normal;font-weight:normal;font-stretch:normal;font-family:helvetica;-inkscape-font-specification:helvetica">Fast</tspan></text>
      <text
         sodipodi:linespacing="100%"
         id="text5621-7"
         y="395.72675"
         x="91.006905"
         style="font-style:normal;font-variant:normal;font-weight:normal;font-stretch:normal;font-size:20px;line-height:100%;font-family:Dingbats;-inkscape-font-specification:'Dingbats, Normal';text-align:start;letter-spacing:0px;word-spacing:0px;writing-mode:lr-tb;text-anchor:start;fill:#000000;fill-opacity:1;stroke:none;stroke-width:1px;stroke-linecap:butt;stroke-linejoin:miter;stroke-opacity:1"
         xml:space="preserve"><tspan
           y="395.72675"
           x="91.006905"
           id="tspan5623-5"
           sodipodi:role="line"
           style="font-style:normal;font-variant:normal;font-weight:normal;font-stretch:normal;font-family:helvetica;-inkscape-font-specification:helvetica">Plus</tspan></text>
      <text
         sodipodi:linespacing="100%"
         id="text5621-7-9-2"
         y="395.72675"
         x="341.9584"
         style="font-style:normal;font-variant:normal;font-weight:normal;font-stretch:normal;font-size:20px;line-height:100%;font-family:Dingbats;-inkscape-font-specification:'Dingbats, Normal';text-align:start;letter-spacing:0px;word-spacing:0px;writing-mode:lr-tb;text-anchor:start;fill:#000000;fill-opacity:1;stroke:none;stroke-width:1px;stroke-linecap:butt;stroke-linejoin:miter;stroke-opacity:1"
         xml:space="preserve"><tspan
           y="395.72675"
           x="341.9584"
           id="tspan5623-5-2-8"
           sodipodi:role="line"
           style="font-style:normal;font-variant:normal;font-weight:normal;font-stretch:normal;font-family:helvetica;-inkscape-font-specification:helvetica">Hold-in</tspan></text>
      <text
         sodipodi:linespacing="100%"
         id="text5621-4"
         y="203.20891"
         x="465.55685"
         style="font-style:normal;font-variant:normal;font-weight:normal;font-stretch:normal;font-size:20px;line-height:100%;font-family:Dingbats;-inkscape-font-specification:'Dingbats, Normal';text-align:start;letter-spacing:0px;word-spacing:0px;writing-mode:lr-tb;text-anchor:start;fill:#008000;fill-opacity:1;stroke:none;stroke-width:1px;stroke-linecap:butt;stroke-linejoin:miter;stroke-opacity:1"
         xml:space="preserve"><tspan
           y="203.20891"
           x="465.55685"
           id="tspan5623-4"
           sodipodi:role="line"
           style="font-style:normal;font-variant:normal;font-weight:normal;font-stretch:normal;font-family:helvetica;-inkscape-font-specification:helvetica">arousal+</tspan></text>
      <text
         sodipodi:linespacing="100%"
         id="text5621-4-9"
         y="203.20891"
         x="218.71858"
         style="font-style:normal;font-variant:normal;font-weight:normal;font-stretch:normal;font-size:20px;line-height:100%;font-family:Dingbats;-inkscape-font-specification:'Dingbats, Normal';text-align:start;letter-spacing:0px;word-spacing:0px;writing-mode:lr-tb;text-anchor:start;fill:#008000;fill-opacity:1;stroke:none;stroke-width:1px;stroke-linecap:butt;stroke-linejoin:miter;stroke-opacity:1"
         xml:space="preserve"><tspan
           style="font-style:normal;font-variant:normal;font-weight:normal;font-stretch:normal;font-family:helvetica;-inkscape-font-specification:helvetica;fill:#800000"
           y="203.20891"
           x="218.71858"
           id="tspan5623-4-2"
           sodipodi:role="line">valence-</tspan></text>
      <g
         id="g4208"
         transform="translate(13.303534,0)">
        <text
           xml:space="preserve"
           style="font-style:normal;font-variant:normal;font-weight:normal;font-stretch:normal;font-size:20px;line-height:100%;font-family:Dingbats;-inkscape-font-specification:'Dingbats, Normal';text-align:start;letter-spacing:0px;word-spacing:0px;writing-mode:lr-tb;text-anchor:start;fill:#000000;fill-opacity:1;stroke:none;stroke-width:1px;stroke-linecap:butt;stroke-linejoin:miter;stroke-opacity:1"
           x="450.25272"
           y="395.72675"
           id="text5621-7-9-2-9"
           sodipodi:linespacing="100%"><tspan
             style="font-style:normal;font-variant:normal;font-weight:normal;font-stretch:normal;font-family:helvetica;-inkscape-font-specification:helvetica"
             sodipodi:role="line"
             id="tspan5623-5-2-8-7"
             x="450.25272"
             y="395.72675">Hold-out</tspan></text>
        <text
           xml:space="preserve"
           style="font-style:normal;font-variant:normal;font-weight:normal;font-stretch:normal;font-size:20px;line-height:100%;font-family:Dingbats;-inkscape-font-specification:'Dingbats, Normal';text-align:start;letter-spacing:0px;word-spacing:0px;writing-mode:lr-tb;text-anchor:start;fill:#008000;fill-opacity:1;stroke:none;stroke-width:1px;stroke-linecap:butt;stroke-linejoin:miter;stroke-opacity:1"
           x="449.12442"
           y="430.53384"
           id="text5621-4-8"
           sodipodi:linespacing="100%"><tspan
             style="font-style:normal;font-variant:normal;font-weight:normal;font-stretch:normal;font-family:helvetica;-inkscape-font-specification:helvetica"
             sodipodi:role="line"
             id="tspan5623-4-6"
             x="449.12442"
             y="430.53384">valence+</tspan></text>
      </g>
      <g
         id="g4202"
         transform="translate(4.9048994,0)">
        <text
           xml:space="preserve"
           style="font-style:normal;font-variant:normal;font-weight:normal;font-stretch:normal;font-size:20px;line-height:100%;font-family:Dingbats;-inkscape-font-specification:'Dingbats, Normal';text-align:start;letter-spacing:0px;word-spacing:0px;writing-mode:lr-tb;text-anchor:start;fill:#000000;fill-opacity:1;stroke:none;stroke-width:1px;stroke-linecap:butt;stroke-linejoin:miter;stroke-opacity:1"
           x="210.46556"
           y="395.72675"
           id="text5621-7-9"
           sodipodi:linespacing="100%"><tspan
             style="font-style:normal;font-variant:normal;font-weight:normal;font-stretch:normal;font-family:helvetica;-inkscape-font-specification:helvetica"
             sodipodi:role="line"
             id="tspan5623-5-2"
             x="210.46556"
             y="395.72675">Minus</tspan></text>
        <text
           xml:space="preserve"
           style="font-style:normal;font-variant:normal;font-weight:normal;font-stretch:normal;font-size:20px;line-height:100%;font-family:Dingbats;-inkscape-font-specification:'Dingbats, Normal';text-align:start;letter-spacing:0px;word-spacing:0px;writing-mode:lr-tb;text-anchor:start;fill:#008000;fill-opacity:1;stroke:none;stroke-width:1px;stroke-linecap:butt;stroke-linejoin:miter;stroke-opacity:1"
           x="199.15134"
           y="430.53384"
           id="text5621-4-83-3"
           sodipodi:linespacing="100%"><tspan
             style="font-style:normal;font-variant:normal;font-weight:normal;font-stretch:normal;font-family:helvetica;-inkscape-font-specification:helvetica"
             sodipodi:role="line"
             id="tspan5623-4-8-3"
             x="199.15134"
             y="430.53384">arousal+</tspan></text>
      </g>
      <g
         id="g4223"
         transform="translate(4.5970465,0)">
        <text
           xml:space="preserve"
           style="font-style:normal;font-variant:normal;font-weight:normal;font-stretch:normal;font-size:20px;line-height:100%;font-family:Dingbats;-inkscape-font-specification:'Dingbats, Normal';text-align:start;letter-spacing:0px;word-spacing:0px;writing-mode:lr-tb;text-anchor:start;fill:#000000;fill-opacity:1;stroke:none;stroke-width:1px;stroke-linecap:butt;stroke-linejoin:miter;stroke-opacity:1"
           x="616.53149"
           y="168.86067"
           id="text5621-1-7-2-2"
           sodipodi:linespacing="100%"><tspan
             style="font-style:normal;font-variant:normal;font-weight:normal;font-stretch:normal;font-family:helvetica;-inkscape-font-specification:helvetica"
             sodipodi:role="line"
             id="tspan5623-8-9-0-3"
             x="616.53149"
             y="168.86067">Slow</tspan></text>
        <text
           xml:space="preserve"
           style="font-style:normal;font-variant:normal;font-weight:normal;font-stretch:normal;font-size:20px;line-height:100%;font-family:Dingbats;-inkscape-font-specification:'Dingbats, Normal';text-align:start;letter-spacing:0px;word-spacing:0px;writing-mode:lr-tb;text-anchor:start;fill:#800000;fill-opacity:1;stroke:none;stroke-width:1px;stroke-linecap:butt;stroke-linejoin:miter;stroke-opacity:1"
           x="602.43304"
           y="203.20891"
           id="text5621-4-83-3-3"
           sodipodi:linespacing="100%"><tspan
             style="font-style:normal;font-variant:normal;font-weight:normal;font-stretch:normal;font-family:helvetica;-inkscape-font-specification:helvetica"
             sodipodi:role="line"
             id="tspan5623-4-8-3-8"
             x="602.43304"
             y="203.20891">arousal-</tspan></text>
      </g>
      <text
         sodipodi:linespacing="100%"
         id="text5621-4-83-3-3-0"
         y="203.20891"
         x="348.84579"
         style="font-style:normal;font-variant:normal;font-weight:normal;font-stretch:normal;font-size:20px;line-height:100%;font-family:Dingbats;-inkscape-font-specification:'Dingbats, Normal';text-align:start;letter-spacing:0px;word-spacing:0px;writing-mode:lr-tb;text-anchor:start;fill:#800000;fill-opacity:1;stroke:none;stroke-width:1px;stroke-linecap:butt;stroke-linejoin:miter;stroke-opacity:1"
         xml:space="preserve"><tspan
           y="203.20891"
           x="348.84579"
           id="tspan5623-4-8-3-8-4"
           sodipodi:role="line"
           style="font-style:normal;font-variant:normal;font-weight:normal;font-stretch:normal;font-family:helvetica;-inkscape-font-specification:helvetica">arousal-</tspan></text>
      <text
         sodipodi:linespacing="100%"
         id="text5621-4-83-3-3-0-7"
         y="233.55409"
         x="332.81439"
         style="font-style:normal;font-variant:normal;font-weight:normal;font-stretch:normal;font-size:20px;line-height:100%;font-family:Dingbats;-inkscape-font-specification:'Dingbats, Normal';text-align:start;letter-spacing:0px;word-spacing:0px;writing-mode:lr-tb;text-anchor:start;fill:#800000;fill-opacity:1;stroke:none;stroke-width:1px;stroke-linecap:butt;stroke-linejoin:miter;stroke-opacity:1"
         xml:space="preserve"><tspan
           y="233.55409"
           x="332.81439"
           id="tspan5623-4-8-3-8-4-6"
           sodipodi:role="line"
           style="font-style:normal;font-variant:normal;font-weight:normal;font-stretch:normal;font-family:helvetica;-inkscape-font-specification:helvetica">dominance-</tspan></text>
      <g
         id="g4214"
         transform="translate(5.9431987,0)">
        <text
           xml:space="preserve"
           style="font-style:normal;font-variant:normal;font-weight:normal;font-stretch:normal;font-size:20px;line-height:100%;font-family:Dingbats;-inkscape-font-specification:'Dingbats, Normal';text-align:start;letter-spacing:0px;word-spacing:0px;writing-mode:lr-tb;text-anchor:start;fill:#000000;fill-opacity:1;stroke:none;stroke-width:1px;stroke-linecap:butt;stroke-linejoin:miter;stroke-opacity:1"
           x="600.79083"
           y="395.72675"
           id="text5621-7-9-2-9-3"
           sodipodi:linespacing="100%"><tspan
             style="font-style:normal;font-variant:normal;font-weight:normal;font-stretch:normal;font-family:helvetica;-inkscape-font-specification:helvetica"
             sodipodi:role="line"
             id="tspan5623-5-2-8-7-6"
             x="600.79083"
             y="395.72675">Variable</tspan></text>
        <g
           transform="translate(-0.58731689,0)"
           id="g4192">
          <text
             sodipodi:linespacing="100%"
             id="text5621-4-9-8"
             y="430.53384"
             x="600.1377"
             style="font-style:normal;font-variant:normal;font-weight:normal;font-stretch:normal;font-size:20px;line-height:100%;font-family:Dingbats;-inkscape-font-specification:'Dingbats, Normal';text-align:start;letter-spacing:0px;word-spacing:0px;writing-mode:lr-tb;text-anchor:start;fill:#008000;fill-opacity:1;stroke:none;stroke-width:1px;stroke-linecap:butt;stroke-linejoin:miter;stroke-opacity:1"
             xml:space="preserve"><tspan
               style="font-style:normal;font-variant:normal;font-weight:normal;font-stretch:normal;font-family:helvetica;-inkscape-font-specification:helvetica;fill:#800000"
               y="430.53384"
               x="600.1377"
               id="tspan5623-4-2-8"
               sodipodi:role="line">valence-</tspan></text>
          <text
             sodipodi:linespacing="100%"
             id="text5621-4-83"
             y="459.84857"
             x="599.02112"
             style="font-style:normal;font-variant:normal;font-weight:normal;font-stretch:normal;font-size:20px;line-height:100%;font-family:Dingbats;-inkscape-font-specification:'Dingbats, Normal';text-align:start;letter-spacing:0px;word-spacing:0px;writing-mode:lr-tb;text-anchor:start;fill:#008000;fill-opacity:1;stroke:none;stroke-width:1px;stroke-linecap:butt;stroke-linejoin:miter;stroke-opacity:1"
             xml:space="preserve"><tspan
               y="459.84857"
               x="599.02112"
               id="tspan5623-4-8"
               sodipodi:role="line"
               style="font-style:normal;font-variant:normal;font-weight:normal;font-stretch:normal;font-family:helvetica;-inkscape-font-specification:helvetica">arousal+</tspan></text>
        </g>
      </g>
      <path
         style="color:#000000;font-style:normal;font-variant:normal;font-weight:normal;font-stretch:normal;font-size:medium;line-height:normal;font-family:sans-serif;text-indent:0;text-align:start;text-decoration:none;text-decoration-line:none;text-decoration-style:solid;text-decoration-color:#000000;letter-spacing:normal;word-spacing:normal;text-transform:none;direction:ltr;block-progression:tb;writing-mode:lr-tb;baseline-shift:baseline;text-anchor:start;white-space:normal;clip-rule:nonzero;display:inline;overflow:visible;visibility:visible;opacity:1;isolation:auto;mix-blend-mode:normal;color-interpolation:sRGB;color-interpolation-filters:linearRGB;solid-color:#000000;solid-opacity:1;fill:#000000;fill-opacity:1;fill-rule:nonzero;stroke:none;stroke-width:1.49999976;stroke-linecap:butt;stroke-linejoin:miter;stroke-miterlimit:4;stroke-dasharray:none;stroke-dashoffset:0;stroke-opacity:1;color-rendering:auto;image-rendering:auto;shape-rendering:auto;text-rendering:auto;enable-background:accumulate"
         d="m 147.0209,37.662904 c -0.42587,-0.0504 -0.86517,-0.0197 -1.27734,0.11914 -0.82435,0.27758 -1.44003,0.86218 -1.94336,1.5625 -1.00667,1.40063 -1.73407,3.42924 -2.48047,6.36719 -1.4928,5.8759 -2.88524,15.36715 -4.44726,29.46874 -1.22228,11.03438 -2.29576,19.26593 -3.29102,25.123056 -0.9039,5.31942 -1.78957,8.4878 -2.48047,10.02538 -0.69444,-1.54707 -1.51147,-4.17537 -2.35156,-8.61523 -0.99761,-5.27236 -2.06176,-12.694276 -3.27539,-22.732426 -1.64594,-13.61386 -2.9997,-22.64196 -4.39063,-28.38671 -0.69546,-2.87238 -1.3828,-4.92226 -2.22851,-6.4043 -0.84571,-1.48203 -2.09887,-2.56445 -3.59375,-2.56445 -1.54547,0 -2.73781,1.14604 -3.58203,2.64258 -0.84423,1.49653 -1.55108,3.55873 -2.26172,6.37304 -1.4213,5.62863 -2.79286,14.26063 -4.33789,26.72656 -2.25374,18.18418 -3.59863,25.981736 -5.328134,31.312506 -0.3046,0.93885 -0.56394,1.58846 -0.79687,2.10156 -0.0516,-0.0953 -0.0573,-0.0721 -0.11133,-0.1836 -1.6495,-3.40586 -3.44554,-12.94684 -6.18555,-35.289056 -1.18996,-9.70303 -2.40441,-17.20638 -3.64648,-22.49219 -0.62104,-2.6429 -1.24485,-4.72899 -1.91211,-6.30664 -0.66727,-1.57764 -1.25365,-2.76033 -2.58985,-3.36914 -0.72564,-0.33062 -1.63495,-0.4309 -2.43945,-0.15039 -0.8045,0.28052 -1.42731,0.85003 -1.93945,1.54102 -1.0243,1.38197 -1.76454,3.37474 -2.51563,6.25586 -1.50216,5.76224 -2.88922,15.07255 -4.46875,29.03515 -1.14546,10.1256 -2.20346,17.838296 -3.21679,23.386716 -0.84516,4.62757 -1.68898,7.43123 -2.38477,9.04883 -0.0268,-0.0623 -0.0297,-0.0367 -0.0566,-0.10351 -0.38779,-0.96042 -0.82616,-2.36607 -1.31055,-4.23243 l -0.98046,-3.78125 -2.95313,0.41211 0.082,3.48242 c 0.0749,3.23429 0.27062,4.18816 1.13477,6.01954 0.27431,0.58136 0.58747,1.16732 0.89062,1.67382 0.30316,0.50651 0.51618,0.8775 0.92578,1.28711 0.98687,0.98686 2.68648,1.21803 3.84961,0.5586 1.16313,-0.65944 1.94344,-1.80952 2.57031,-3.29102 2.00823,-4.74607 3.63344,-14.52206 5.73438,-32.816406 1.89484,-16.49969 3.33466,-25.6343 4.73633,-30.4707 0.28712,-0.9907 0.58296,-1.73708 0.86718,-2.45508 0.24652,0.55194 0.49244,1.04209 0.74414,1.82813 1.50193,4.69027 3.17586,14.42337 4.89453,28.92578 1.97821,16.69228 3.47472,25.394126 5.47852,31.455076 0.7663,2.31779 1.66635,4.00437 3.20898,4.88672 0.77133,0.44117 1.78591,0.5744 2.654304,0.27148 0.8684,-0.30291 1.54219,-0.92358 2.10547,-1.70117 1.40966,-1.94597 2.39362,-5.23476 3.47266,-10.27148 1.07903,-5.03674 2.13311,-11.749276 3.16601,-20.132816 1.63978,-13.30917 2.06539,-16.46691 2.94727,-21.85742 0.85096,-5.20148 1.76647,-9.44241 2.61523,-12.31055 0.3472,-1.17323 0.66421,-1.9375 0.95703,-2.59179 0.0277,0.0668 0.0422,0.0729 0.0703,0.14453 0.47596,1.21214 1.02654,3.11578 1.58203,5.52344 1.11097,4.81531 2.26452,11.67436 3.23633,19.62304 2.08712,17.07101 2.55318,20.60816 3.35547,25.462886 0.75979,4.59766 1.53917,8.29054 2.35156,11.10743 0.81238,2.81688 1.55777,4.73911 2.74414,6.00195 1.29172,1.37495 3.43351,1.61923 4.83203,0.2207 1.8172,-1.81719 2.76764,-5.05829 3.91992,-10.88281 1.15229,-5.82453 2.30489,-14.211976 3.625,-25.972656 1.33,-11.84872 2.43878,-20.25709 3.47266,-26.0625 0.78728,-4.42073 1.54908,-6.9495 2.23437,-8.63281 0.20507,0.4579 0.32786,0.56735 0.55469,1.29883 0.47318,1.52592 0.9748,3.60593 1.48242,6.17383 1.01524,5.13578 2.06007,12.23247 3.07032,20.98632 1.5658,13.5678 2.79985,22.70433 3.98828,28.847656 1.18842,6.14333 2.18696,9.32796 4.00586,11.15234 0.65581,0.6578 1.32608,1.29446 2.41992,1.33204 1.09383,0.0376 1.8348,-0.60434 2.46484,-1.23438 0.42467,-0.42467 0.86882,-0.94583 1.08008,-1.625 0.21126,-0.67917 0.2015,-1.28094 0.19531,-2.13281 l -0.0137,-1.83594 -2.86133,-0.61914 -0.78906,1.70508 c -0.19878,-0.44511 -0.38774,-0.76061 -0.57813,-1.36328 -1.40649,-4.45234 -2.9305,-13.091436 -4.31836,-24.851566 -2.57034,-21.78021 -3.70821,-29.5562 -5.24609,-35.60546 -0.46439,-1.82672 -1.03523,-3.47134 -1.65234,-4.78711 -0.61712,-1.31578 -1.07791,-2.33319 -2.29102,-2.98242 -0.35533,-0.19017 -0.76748,-0.32261 -1.19336,-0.37305 z"
         id="path4213"
         inkscape:connector-curvature="0" />
      <path
         style="color:#000000;font-style:normal;font-variant:normal;font-weight:normal;font-stretch:normal;font-size:medium;line-height:normal;font-family:sans-serif;text-indent:0;text-align:start;text-decoration:none;text-decoration-line:none;text-decoration-style:solid;text-decoration-color:#000000;letter-spacing:normal;word-spacing:normal;text-transform:none;direction:ltr;block-progression:tb;writing-mode:lr-tb;baseline-shift:baseline;text-anchor:start;white-space:normal;clip-rule:nonzero;display:inline;overflow:visible;visibility:visible;opacity:1;isolation:auto;mix-blend-mode:normal;color-interpolation:sRGB;color-interpolation-filters:linearRGB;solid-color:#000000;solid-opacity:1;fill:#000000;fill-opacity:1;fill-rule:nonzero;stroke:none;stroke-width:1.49999976;stroke-linecap:butt;stroke-linejoin:miter;stroke-miterlimit:4;stroke-dasharray:none;stroke-dashoffset:0;stroke-opacity:1;color-rendering:auto;image-rendering:auto;shape-rendering:auto;text-rendering:auto;enable-background:accumulate"
         d="m 418.37048,62.753 c -0.60569,0.10379 -1.20256,0.3194 -1.77734,0.59765 -3.21781,1.55771 -5.45412,5.80512 -7.86719,12.60156 -1.91389,5.39051 -3.51558,8.40586 -5.03125,9.97071 -0.72859,0.75222 -1.13199,1.07768 -1.13281,1.07812 -8.2e-4,4.5e-4 0.26423,-0.002 -0.19531,-0.0762 -0.56807,-0.0922 -1.35237,-0.58355 -2.38477,-2.14062 -1.0324,-1.55708 -2.21069,-4.06177 -3.54687,-7.60547 -1.46696,-3.89052 -2.76612,-6.73676 -4.11915,-8.80664 -1.35302,-2.06989 -2.83292,-3.43319 -4.60742,-3.96484 -0.57372,-0.1719 -1.15725,-0.31726 -1.8164,-0.23828 -0.65915,0.079 -1.1667,0.321 -1.80274,0.6289 -3.10123,1.50128 -5.01272,5.20566 -7.57812,12.61719 -2.00547,5.79384 -3.8319,9.18588 -4.98633,10.25 -0.65194,0.60094 -1.02012,0.76284 -0.96289,0.75 0.0572,-0.0128 0.19193,0.0868 -0.21094,-0.19336 -1.23226,-0.85685 -2.94252,-3.81295 -5.35742,-10.88477 -2.20247,-6.44976 -3.54023,-9.40683 -5.45703,-11.48632 -1.23579,-1.34069 -2.6555,-2.24245 -4.25782,-2.24219 -1.60231,2.5e-4 -3.02179,0.90126 -4.2578,2.24219 -1.95203,2.1177 -3.52224,5.57079 -5.59179,11.60742 -2.10987,6.15422 -3.47276,8.88378 -4.75,10.21679 -0.42166,0.44007 -0.69255,0.65453 -0.80664,0.72071 -0.1141,0.0662 -0.0643,0.0566 -0.2461,0.0566 -0.38502,0 -0.93427,-0.21886 -1.77148,-1.2461 -0.83722,-1.02724 -1.81902,-2.77452 -2.86914,-5.23242 l -1.2461,-2.91601 -2.8789,0.58593 -0.004,1.88672 0,0.002 c -0.002,1.53203 0.25217,2.76916 0.85156,4.05664 1.20548,2.58935 2.77768,4.94572 4.5,6.19336 l 0.3086,0.22461 0.14257,0.0176 c 0.85256,0.52378 1.76626,0.87891 2.7129,0.87891 2.14085,0 4.12181,-1.21726 5.6621,-3.49414 1.5403,-2.27689 2.9439,-5.65382 4.69141,-10.72461 0.97255,-2.82207 2.35812,-6.26337 2.87694,-7.26367 0.54817,-1.05687 1.24651,-2.03952 1.85938,-2.69532 0.36777,-0.39352 0.67032,-0.56729 0.82422,-0.66796 0.22103,0.13675 0.50515,0.34287 0.74609,0.56054 1.03217,0.9325 2.90953,4.49018 4.93164,10.58985 2.50858,7.56711 4.36452,11.36108 7.40235,12.97265 0.59027,0.31314 1.08427,0.57556 1.75195,0.6582 0.66768,0.0827 1.23693,-0.0725 1.81641,-0.24609 1.76769,-0.52961 3.23492,-1.88861 4.54296,-3.99805 1.30804,-2.10943 2.55708,-5.04192 4.02539,-9.16992 2.60043,-7.31078 4.34635,-10.03196 5.45118,-10.62695 0.4585,-0.24692 0.50637,-0.20952 0.31054,-0.20703 -0.19582,0.002 -0.0989,-0.0192 0.39844,0.2168 1.24629,0.5914 3.02378,3.12772 5.47852,9.63085 1.72175,4.56129 3.29108,7.79722 5.00781,9.96289 1.71672,2.16568 3.90365,3.32066 6.12305,2.9043 1.99468,-0.3742 3.65741,-1.83202 5.14843,-4.08594 1.49103,-2.25392 2.90653,-5.40175 4.45118,-9.67578 1.45837,-4.03533 2.8488,-6.92619 4.04492,-8.59375 0.59806,-0.83377 1.14545,-1.34705 1.53125,-1.58007 0.38579,-0.23303 0.53728,-0.23162 0.75195,-0.17774 0.15359,0.0385 1.34512,0.95402 2.50977,2.92774 1.16464,1.97372 2.44873,4.85394 3.70507,8.42773 2.28416,6.49747 4.34919,10.59064 7.10157,12.49804 1.00773,0.69836 2.17238,1.00899 3.44921,0.92774 0.66631,-0.0424 1.1196,0.0183 1.83984,-0.38867 0.36012,-0.20349 0.71041,-0.61315 0.85742,-0.96094 0.14701,-0.34779 0.16993,-0.60346 0.19531,-0.82227 0.0227,-0.19585 0.0698,-0.38246 0.0234,-0.77539 -0.0464,-0.39293 -0.46497,-1.1443 -0.97656,-1.38867 -0.5116,-0.24437 -0.8162,-0.20098 -1.09375,-0.19336 -0.27756,0.008 -0.54732,0.0356 -0.89062,0.0684 -0.64038,0.0612 -0.69206,0.0287 -0.64453,0.0488 0.0475,0.0202 -0.19813,-0.14084 -0.77539,-0.72461 -1.23839,-1.25233 -3.11283,-4.74896 -4.93164,-9.86914 -2.20077,-6.19544 -3.87518,-9.58641 -6.11523,-11.8789 -1.09124,-1.11679 -2.04061,-1.92184 -3.25586,-2.26172 -0.60763,-0.16994 -1.22244,-0.17801 -1.82813,-0.0742 z"
         id="path4217"
         inkscape:connector-curvature="0" />
      <path
         style="color:#000000;font-style:normal;font-variant:normal;font-weight:normal;font-stretch:normal;font-size:medium;line-height:normal;font-family:sans-serif;text-indent:0;text-align:start;text-decoration:none;text-decoration-line:none;text-decoration-style:solid;text-decoration-color:#000000;letter-spacing:normal;word-spacing:normal;text-transform:none;direction:ltr;block-progression:tb;writing-mode:lr-tb;baseline-shift:baseline;text-anchor:start;white-space:normal;clip-rule:nonzero;display:inline;overflow:visible;visibility:visible;opacity:1;isolation:auto;mix-blend-mode:normal;color-interpolation:sRGB;color-interpolation-filters:linearRGB;solid-color:#000000;solid-opacity:1;fill:#000000;fill-opacity:1;fill-rule:nonzero;stroke:none;stroke-width:1.49999976;stroke-linecap:butt;stroke-linejoin:miter;stroke-miterlimit:4;stroke-dasharray:none;stroke-dashoffset:0;stroke-opacity:1;color-rendering:auto;image-rendering:auto;shape-rendering:auto;text-rendering:auto;enable-background:accumulate"
         d="m 286.29237,15.759193 c -1.16353,0 -2.36234,0.80699 -2.99414,1.90235 -0.63181,1.09535 -1.04558,2.50621 -1.51954,4.54882 -1.95919,8.44366 -3.53709,24.60816 -5.87109,59.24218 -1.53737,22.813017 -3.05665,38.618867 -4.48437,46.914067 -0.25669,1.49137 -0.55483,2.66112 -0.84571,3.85938 -0.8157,-3.11631 -1.67748,-7.744 -2.541,-15.07422 -1.076,-9.13377 -2.17698,-21.629227 -3.34571,-37.882817 -1.43085,-19.89901 -2.70264,-34.11477 -3.96679,-43.7871 -0.63208,-4.83617 -1.25984,-8.53474 -1.91992,-11.27344 -0.66009,-2.73869 -1.23713,-4.49738 -2.31446,-5.70312 -0.39625,-0.44349 -0.65991,-0.85899 -1.43359,-1.13282 -0.38684,-0.13691 -0.85015,-0.13403 -1.16797,-0.0625 -0.31782,0.0715 -0.52988,0.17157 -0.73633,0.26563 -1.0162,0.46301 -1.60918,1.35897 -2.09179,2.44141 -0.48262,1.08243 -0.87415,2.45157 -1.26368,4.23632 -1.9424,8.89975 -3.55747,25.19634 -5.66992,56.61914 -1.83099,27.236187 -3.72663,44.928497 -5.41992,51.763667 -0.79962,-2.81319 -1.69135,-7.13442 -2.58398,-14.47265 -1.18271,-9.72281 -2.42126,-23.595007 -3.80469,-42.380867 -1.12592,-15.28904 -2.27334,-27.59529 -3.41992,-36.73241 -1.14659,-9.13712 -2.19306,-14.96392 -3.49805,-17.91406 -0.42915,-0.97015 -0.9791,-1.77006 -1.76367,-2.32422 -0.78458,-0.55417 -2.00844,-0.76757 -2.96094,-0.25781 -1.17612,0.62943 -1.67006,1.7037 -2.21094,3.13085 -0.54088,1.42715 -1.02764,3.30539 -1.50781,5.73243 -0.96033,4.85407 -1.87873,11.89162 -2.83594,21.47656 -0.8137,8.14789 -1.16716,12.51105 -3.08398,38.06249 -1.55715,20.756777 -3.43871,35.978537 -5.04297,42.375007 -0.22966,-0.83055 -0.30147,-0.81568 -0.83594,-3.12305 l 0,-0.002 c -0.0311,-0.13406 -0.0603,-0.25001 -0.10351,-0.38477 -0.0432,-0.13476 0.0762,-0.21463 -0.41211,-0.71484 -0.12209,-0.12506 -0.32038,-0.30526 -0.68555,-0.40625 -0.36518,-0.10099 -0.87884,-0.0209 -1.18164,0.16015 -0.6056,0.36217 -0.60955,0.66702 -0.66406,0.82227 -0.10903,0.31049 -0.0967,0.40768 -0.10938,0.54687 -0.0509,0.55676 -0.0395,1.30994 -0.0176,2.66211 0.0237,1.45866 0.0595,2.41946 0.17383,3.22656 0.11435,0.80711 0.34581,1.486 0.65235,2.07032 0.41166,0.78471 0.80086,1.43509 1.51757,1.91992 0.71672,0.48483 1.69668,0.53162 2.41407,0.35156 0.96806,-0.24297 1.53145,-0.92805 1.98242,-1.67187 0.45096,-0.74382 0.81825,-1.65622 1.17773,-2.79883 0.71897,-2.28523 1.37909,-5.49406 2.03125,-9.76563 1.30434,-8.54313 2.55382,-21.30767 3.83399,-38.818357 1.21413,-16.60731 1.59076,-21.34638 2.34765,-29.58007 1.1999,-13.05302 2.69237,-24.06394 3.74805,-28.17774 0.0486,-0.18931 0.0965,-0.2829 0.14648,-0.46289 0.0291,0.11104 0.0508,0.14767 0.0801,0.26368 0.56967,2.2546 1.18872,5.44987 1.70899,9.00781 1.59308,10.89473 2.51939,20.77376 4.80468,51.27343 1.7606,23.496967 3.71084,40.484067 5.58594,47.828127 0.44933,1.75985 0.94008,2.96338 1.51953,3.98828 l -0.18164,0.17969 0.92774,1.05664 c 1.17226,1.33694 3.22356,1.30964 4.44921,0.084 1.18737,-1.18737 1.65502,-2.90025 2.29102,-5.67578 0.636,-2.77553 1.24601,-6.57222 1.85938,-11.54297 1.22672,-9.94149 2.46136,-24.56767 3.81836,-44.783197 1.24317,-18.52002 2.53639,-33.11953 3.77343,-42.6582 0.48041,-3.70436 1.07086,-7.05472 1.61914,-9.43555 0.30278,1.16454 0.61519,2.33483 0.89063,3.83789 1.55564,8.48907 3.15878,24.25851 4.93945,48.84375 1.35212,18.668167 2.51662,32.068337 3.65625,41.535157 1.13963,9.46681 2.19805,14.94505 3.58594,18.10156 0.34265,0.7793 0.76824,1.43233 1.36718,1.92383 0.59895,0.4915 1.44483,0.78631 2.2539,0.66406 1.61814,-0.2445 2.54746,-1.59735 3.17383,-3.27149 1.18606,-3.17004 2.16892,-9.17778 3.23047,-18.84961 1.06155,-9.67182 2.14349,-22.913307 3.28711,-40.111327 1.9625,-29.51266 3.74627,-46.43378 5.52539,-54.08398 0.82606,3.16008 1.71306,7.95321 2.60156,15.49805 1.09951,9.33663 2.22228,22.0364 3.39063,38.30273 1.41776,19.738817 2.72113,34.187587 4.01367,44.101567 0.64627,4.95698 1.28794,8.77629 1.95312,11.59375 0.66519,2.81746 1.19258,4.5897 2.33399,5.80468 0.62638,0.66675 1.48418,1.23109 2.51758,1.16211 1.03339,-0.069 1.8119,-0.74196 2.3457,-1.48828 1.0676,-1.49263 1.73396,-3.71712 2.41211,-6.98437 1.52816,-7.36254 2.23256,-14.42937 2.20117,-22.08203 l -0.0293,-6.82227 -2.99023,-0.14843 -0.81445,7.83788 c -0.98897,9.52728 -1.81993,15.60583 -2.76563,20.31446 -0.19143,0.95309 -0.38003,1.48685 -0.57617,2.23437 -0.21321,-0.77863 -0.4335,-1.48538 -0.61719,-2.37695 -1.76183,-8.55137 -3.41552,-24.18744 -5.38672,-51.330077 -1.64118,-22.59857 -3.06376,-38.06741 -4.5,-47.95898 -0.71812,-4.94576 -1.43095,-8.48691 -2.22265,-10.91599 -0.39585,-1.21453 -0.79998,-2.15383 -1.33594,-2.9082 -0.53596,-0.75437 -1.36914,-1.43555 -2.41406,-1.43555 z"
         id="path4215"
         inkscape:connector-curvature="0" />
      <path
         style="color:#000000;font-style:normal;font-variant:normal;font-weight:normal;font-stretch:normal;font-size:medium;line-height:normal;font-family:sans-serif;text-indent:0;text-align:start;text-decoration:none;text-decoration-line:none;text-decoration-style:solid;text-decoration-color:#000000;letter-spacing:normal;word-spacing:normal;text-transform:none;direction:ltr;block-progression:tb;writing-mode:lr-tb;baseline-shift:baseline;text-anchor:start;white-space:normal;clip-rule:nonzero;display:inline;overflow:visible;visibility:visible;opacity:1;isolation:auto;mix-blend-mode:normal;color-interpolation:sRGB;color-interpolation-filters:linearRGB;solid-color:#000000;solid-opacity:1;fill:#000000;fill-opacity:1;fill-rule:nonzero;stroke:none;stroke-width:1.49999976;stroke-linecap:butt;stroke-linejoin:miter;stroke-miterlimit:4;stroke-dasharray:none;stroke-dashoffset:0;stroke-opacity:1;color-rendering:auto;image-rendering:auto;shape-rendering:auto;text-rendering:auto;enable-background:accumulate"
         d="m 281.98573,275.75672 c -0.32235,-0.004 -0.60803,0.0611 -0.83985,0.10742 -1.9201,0.38402 -3.40975,1.79767 -4.7207,4.03516 -3.32672,5.67797 -5.85587,15.82813 -9.35937,36.26172 -3.25486,18.98349 -5.89651,29.32251 -8.47851,34.17968 -0.16648,0.31316 -0.41251,0.58637 -0.63281,0.89843 -0.11357,-0.87519 -0.21741,-1.61324 -0.38672,-3.28906 -0.62128,-6.14935 -0.92727,-11.27655 -1.74024,-29.13671 -0.55868,-12.27388 -1.04041,-21.04745 -1.5,-27.01953 -0.22979,-2.98604 -0.45404,-5.26915 -0.68359,-6.96094 -0.22955,-1.69178 -0.38723,-2.70436 -0.80859,-3.58789 -0.35698,-0.74851 -1.06523,-1.35801 -1.83985,-1.57226 -0.77462,-0.21425 -1.53689,-0.10229 -2.22851,0.15039 -1.38326,0.50534 -2.63193,1.59094 -3.66993,3.09961 -3.70566,5.38599 -6.33646,14.51848 -10.39843,34.79101 -3.46659,17.30107 -5.53289,24.81417 -8.26953,30.42968 -0.77577,1.59185 -1.39318,2.3966 -1.90821,2.98047 -0.21046,-1.43546 -0.4355,-3.5237 -0.66797,-6.4082 -0.48419,-6.00812 -1.00318,-15.10637 -1.56054,-27.35351 -0.57665,-12.67073 -1.07534,-21.43692 -1.58203,-27.25586 -0.25335,-2.90947 -0.50679,-5.07924 -0.78321,-6.66602 -0.27642,-1.58677 -0.39217,-2.51032 -1.14453,-3.43945 -0.27463,-0.33915 -0.77423,-0.89363 -1.53711,-1.02148 -0.76288,-0.12785 -1.18681,0.0736 -1.75586,0.24414 -1.56856,0.46995 -2.88411,1.64431 -4.05664,3.33984 -1.17252,1.69553 -2.24649,3.96253 -3.32422,6.91797 -2.15546,5.91089 -4.30856,14.59166 -6.75,26.7832 -3.76867,18.81928 -6.68357,28.19184 -9.49803,32.10937 -0.57855,0.80529 -0.98195,1.6279 -1.19141,2.42773 -0.10473,0.39992 -0.19424,0.78164 -0.084,1.34375 0.0551,0.28106 0.17994,0.64504 0.50585,0.96875 0.32592,0.32372 0.84434,0.50391 1.23829,0.50391 0.63267,0 0.90055,-0.22466 1.13085,-0.38477 0.23029,-0.1601 0.40722,-0.32713 0.58789,-0.51171 0.36134,-0.36917 0.71808,-0.81568 1.09375,-1.33594 0.75132,-1.04052 1.55458,-2.36063 2.20312,-3.68946 2.81747,-5.77284 5.26351,-14.82081 8.37891,-30.55467 3.04019,-15.35399 5.56079,-24.52776 7.98437,-29.51758 0.57197,-1.17761 1.24649,-2.26852 1.8418,-3.04102 0.021,-0.0272 0.0119,-0.0109 0.0332,-0.0371 0.69704,4.25749 1.51279,16.05112 2.40821,36.14453 0.49937,11.2062 0.98245,19.41729 1.48437,25.03515 0.25096,2.80893 0.50392,4.96673 0.77734,6.5586 0.13672,0.79593 0.27671,1.4475 0.4375,1.99609 0.1608,0.54859 0.29084,0.98279 0.6875,1.47265 0.27007,0.33352 0.78324,0.88125 1.53125,1.00196 0.74802,0.12071 1.16984,-0.0729 1.72852,-0.24024 2.46939,-0.73985 4.22585,-3.14316 5.96094,-6.77539 2.93791,-6.15025 5.14247,-14.40756 8.63476,-31.96483 3.21946,-16.18559 5.43312,-24.24722 8.01953,-29.60547 0.54826,-1.13581 1.28367,-2.27379 1.93946,-3.11133 0.19537,1.23936 0.40011,2.99283 0.61328,5.63477 0.46004,5.70149 0.95955,14.8041 1.57226,28.25781 0.5924,13.00761 1.05805,21.60613 1.51368,27.20116 0.22781,2.79752 0.45058,4.84089 0.69531,6.3418 0.24473,1.50091 0.43182,2.42033 0.95703,3.25391 0.48006,0.7619 1.38144,1.32923 2.26953,1.375 0.8881,0.0458 1.65713,-0.28407 2.3457,-0.74219 1.37715,-0.91625 2.58211,-2.46122 3.59571,-4.48633 2.96195,-5.91779 5.37951,-15.71473 8.41797,-33.40038 2.63527,-15.33892 4.12085,-22.38187 6.05663,-28.78516 0.64142,-2.12174 1.52273,-4.35974 2.36718,-6.12695 0.31069,-0.65017 0.59393,-1.13896 0.875,-1.62695 0.25552,1.57973 0.59237,4.09614 0.94727,8.99218 0.42628,5.88072 0.87282,13.80291 1.30078,23.21485 0.54999,12.09572 1.0647,20.98573 1.57422,27.03905 0.25476,3.02666 0.50642,5.33985 0.76953,7.02149 0.13156,0.84081 0.26559,1.52237 0.41602,2.08398 0.15043,0.56161 0.23073,0.97662 0.67968,1.51758 0.8803,1.06069 2.33833,1.10523 3.43555,0.75195 1.09723,-0.35328 2.13987,-1.0639 3.0957,-2.04883 0.55228,-0.56908 0.98797,-1.0249 1.28125,-1.69922 0.29329,-0.67432 0.3125,-1.32535 0.3125,-2.03906 l 0,-6.51758 -3.89257,5.94922 c -0.30357,0.46375 -0.64383,0.77632 -0.97852,1.12696 -0.0309,-0.19915 -0.0562,-0.28402 -0.0879,-0.51758 -0.21316,-1.57052 -0.44327,-3.90388 -0.67969,-6.91797 -0.47284,-6.02819 -0.97616,-14.79362 -1.47461,-25.88671 -0.50835,-11.31373 -0.98275,-19.69386 -1.46289,-25.58203 -0.24006,-2.94409 -0.48173,-5.26366 -0.73242,-7.0332 -0.25069,-1.76955 -0.47243,-2.94164 -0.84961,-3.84961 -0.20113,-0.4842 -0.33357,-1.03463 -1.08398,-1.4961 -0.37521,-0.23073 -0.73429,-0.30265 -1.05664,-0.30664 z"
         id="path4225"
         inkscape:connector-curvature="0" />
      <path
         style="color:#000000;font-style:normal;font-variant:normal;font-weight:normal;font-stretch:normal;font-size:medium;line-height:normal;font-family:sans-serif;text-indent:0;text-align:start;text-decoration:none;text-decoration-line:none;text-decoration-style:solid;text-decoration-color:#000000;letter-spacing:normal;word-spacing:normal;text-transform:none;direction:ltr;block-progression:tb;writing-mode:lr-tb;baseline-shift:baseline;text-anchor:start;white-space:normal;clip-rule:nonzero;display:inline;overflow:visible;visibility:visible;opacity:1;isolation:auto;mix-blend-mode:normal;color-interpolation:sRGB;color-interpolation-filters:linearRGB;solid-color:#000000;solid-opacity:1;fill:#000000;fill-opacity:1;fill-rule:nonzero;stroke:none;stroke-width:1.49999976;stroke-linecap:butt;stroke-linejoin:miter;stroke-miterlimit:4;stroke-dasharray:none;stroke-dashoffset:0;stroke-opacity:1;color-rendering:auto;image-rendering:auto;shape-rendering:auto;text-rendering:auto;enable-background:accumulate"
         d="m 135.53067,277.26258 c -0.35049,0.0385 -0.76061,0.20826 -1.0293,0.41602 -0.26869,0.20775 -0.4168,0.4065 -0.53516,0.56836 -0.71402,0.97648 -0.82817,1.95818 -1.10546,3.67773 -0.2773,1.71955 -0.53533,4.06776 -0.79102,7.17969 -0.51137,6.22385 -1.01014,15.48962 -1.56445,28.5957 -0.49472,11.69696 -0.99054,20.8554 -1.45899,27.1289 -0.23422,3.13675 -0.46258,5.55583 -0.67578,7.18164 -0.0106,0.081 -0.0187,0.10258 -0.0293,0.17968 -0.68301,-0.92674 -1.55506,-2.40708 -2.46874,-4.70507 -1.1825,-2.97408 -2.41442,-6.92435 -3.57227,-11.56836 -1.08121,-4.33666 -2.00509,-8.83127 -4.64453,-22.60546 -2.77896,-14.50232 -5.81399,-24.69011 -9.2461,-29.33789 -0.66637,-0.90242 -1.55864,-1.60745 -2.47851,-2.12695 -0.45994,-0.25976 -0.92383,-0.46968 -1.41797,-0.60352 -0.49415,-0.13384 -1.03721,-0.251 -1.74219,0.0195 -0.81091,0.31117 -1.19972,0.9659 -1.46094,1.58399 -0.26122,0.61808 -0.43663,1.33516 -0.60742,2.27343 -0.34158,1.87655 -0.62712,4.63251 -0.947264,8.72266 -0.50383,6.43682 -0.85445,12.7689 -1.47071,26.46484 -0.37405,8.31299 -0.80531,15.72514 -1.21875,21.24609 -0.20672,2.76047 -0.4108,5.04928 -0.59765,6.72851 -0.0405,0.3637 -0.0746,0.57658 -0.11328,0.88086 -1.23779,-1.6375 -2.62312,-4.47148 -4.05078,-9.33594 -1.62668,-5.54251 -3.33744,-13.35676 -5.27344,-23.95702 -0.88986,-4.87225 -2.13024,-11.1914 -2.77539,-14.12304 -1.61347,-7.3318 -3.26046,-12.96196 -5,-16.97071 -1.73954,-4.00874 -3.49324,-6.62893 -6.13867,-7.2832 -0.53107,-0.13134 -1.20309,-0.19202 -1.86524,0.0977 -0.66214,0.28967 -1.11635,0.86379 -1.39062,1.43164 -0.54855,1.13569 -0.74251,2.51946 -1.00781,4.74609 -0.60774,5.10054 -1.24697,16.02282 -1.91797,32.48242 -0.72678,17.82763 -1.28934,27.72014 -1.89063,33.42968 -0.12967,1.23127 -0.20432,1.61631 -0.29492,2.25 -0.59596,-0.7597 -1.26013,-1.77152 -1.76953,-2.82422 l -1.15625,-2.38867 -2.84961,0.64258 -0.0117,1.76953 c -0.0105,1.65321 0.32353,2.73913 1.35938,4.3418 0.91978,1.42308 1.95939,2.54633 3.08984,3.28515 1.13045,0.73882 2.56492,1.18238 3.86914,0.48438 0.75984,-0.40666 0.95632,-0.95082 1.16211,-1.48047 0.20579,-0.52965 0.35866,-1.1416 0.50781,-1.91992 0.2983,-1.55665 0.55915,-3.76631 0.81836,-6.86524 0.51843,-6.19787 1.01637,-15.92972 1.61523,-30.6035 0.44493,-10.90189 0.9031,-19.64788 1.33789,-25.73829 0.2174,-3.0452 0.42911,-5.4301 0.62696,-7.06445 0.0216,-0.1784 0.0393,-0.24392 0.0605,-0.4043 0.01,0.0139 0.0177,0.0172 0.0273,0.0312 2.81615,4.09314 5.60165,13.71521 9.20312,33.45704 2.40874,13.20372 3.92329,19.82987 6.04883,26.39061 1.18654,3.66241 2.42823,6.51575 3.77539,8.56445 1.34716,2.04871 2.90144,3.50196 4.9043,3.50196 0.47703,0 1.13765,-0.0869 1.67578,-0.50196 0.53813,-0.41504 0.76211,-0.91163 0.958984,-1.38281 0.36915,-0.88349 0.50516,-1.90846 0.72656,-3.56445 0.22141,-1.656 0.4431,-3.81151 0.66211,-6.37891 0.43802,-5.1348 0.85955,-11.91253 1.19336,-19.50389 0.63444,-14.42787 1.16237,-24.29118 1.6543,-30.51172 0.23431,-2.96289 0.46085,-4.98892 0.67773,-6.35938 0.4907,0.67182 1.02254,1.47082 1.48634,2.43164 2.84967,5.90357 4.60219,12.81833 9.17578,36.64844 1.739,9.06083 3.59706,16.30883 5.53125,21.57811 0.96709,2.63465 1.94953,4.77586 2.98632,6.42969 1.0368,1.65384 2.11364,2.87381 3.51563,3.48438 0.50131,0.21832 0.95624,0.39372 1.48437,0.47461 0.52814,0.0809 1.20714,0.0255 1.76563,-0.31836 1.11697,-0.6877 1.30856,-1.72759 1.57227,-2.9043 0.43514,-1.94172 0.81423,-6.04283 1.24023,-12.31055 0.426,-6.26772 0.86143,-14.57978 1.27539,-24.45116 0.49939,-11.90871 0.99766,-21.17749 1.4707,-27.50976 0.23653,-3.16614 0.46693,-5.60137 0.6836,-7.23633 0.008,-0.0573 0.0139,-0.0716 0.0215,-0.12695 0.5736,0.75953 1.19482,1.63676 1.59766,2.46289 2.25639,4.62734 4.62486,13.04689 7.02734,25.3789 0.79301,4.07052 2.03818,10.47598 2.76758,14.23438 2.3778,12.25217 4.80983,21.01338 7.42969,26.39256 0.65049,1.33564 1.48428,2.65287 2.28711,3.69336 0.40141,0.52025 0.78896,0.96854 1.18945,1.3379 0.40049,0.36935 0.65582,0.83593 1.75,0.83593 0.38274,0 0.86742,-0.15893 1.19336,-0.45312 0.32593,-0.29419 0.47691,-0.64366 0.54883,-0.92383 0.14382,-0.56035 0.0671,-0.95448 -0.0274,-1.3457 -0.18881,-0.78245 -0.56946,-1.53888 -1.20507,-2.21485 -1.05228,-1.11906 -2.73299,-4.58359 -4.31641,-9.66015 -1.58342,-5.07657 -3.20469,-11.81795 -4.73633,-19.83788 -3.13077,-16.39333 -3.76354,-19.48349 -5.00781,-24.46485 -1.59434,-6.38284 -3.13959,-11.18855 -4.76563,-14.625 -1.62603,-3.43645 -3.32434,-5.67362 -5.6914,-6.38281 -0.55241,-0.16551 -0.93574,-0.33871 -1.63672,-0.26172 z"
         id="path4223"
         inkscape:connector-curvature="0" />
      <path
         style="color:#000000;font-style:normal;font-variant:normal;font-weight:normal;font-stretch:normal;font-size:medium;line-height:normal;font-family:sans-serif;text-indent:0;text-align:start;text-decoration:none;text-decoration-line:none;text-decoration-style:solid;text-decoration-color:#000000;letter-spacing:normal;word-spacing:normal;text-transform:none;direction:ltr;block-progression:tb;writing-mode:lr-tb;baseline-shift:baseline;text-anchor:start;white-space:normal;clip-rule:nonzero;display:inline;overflow:visible;visibility:visible;opacity:1;isolation:auto;mix-blend-mode:normal;color-interpolation:sRGB;color-interpolation-filters:linearRGB;solid-color:#000000;solid-opacity:1;fill:#000000;fill-opacity:1;fill-rule:nonzero;stroke:none;stroke-width:1.49999976;stroke-linecap:butt;stroke-linejoin:miter;stroke-miterlimit:4;stroke-dasharray:none;stroke-dashoffset:0;stroke-opacity:1;color-rendering:auto;image-rendering:auto;shape-rendering:auto;text-rendering:auto;enable-background:accumulate"
         d="m 372.48962,270.37781 c -1.20561,0 -2.3477,0.0331 -3.2539,0.0899 -0.45311,0.0284 -0.84561,0.0608 -1.17774,0.10351 -0.33212,0.0427 -0.43614,-0.0531 -1.06445,0.28321 -1.27738,0.68363 -1.80972,1.90959 -2.38867,3.62109 -0.57896,1.7115 -1.09815,4.02919 -1.6211,7.14258 -1.0459,6.22677 -2.0833,15.61458 -3.28514,29.16797 -0.79238,8.93579 -1.93566,19.12319 -2.63672,23.55468 -0.3932,2.48546 -0.85824,4.62503 -1.29492,6.39062 -0.34791,-1.40494 -0.70732,-2.90493 -1.05469,-4.95508 -0.87391,-5.15775 -1.64047,-11.62402 -2.76563,-23.40428 -1.18823,-12.44072 -2.19337,-21.013 -3.19336,-26.69532 -0.49999,-2.84115 -0.99267,-4.95697 -1.54296,-6.52734 -0.55029,-1.57037 -1.06855,-2.71336 -2.2793,-3.36133 -0.59819,-0.32015 -0.75349,-0.24809 -1.09375,-0.29101 -0.34026,-0.0429 -0.73234,-0.074 -1.17774,-0.0996 -0.89079,-0.0513 -1.98168,-0.0758 -3.07617,-0.0781 -1.09448,-0.002 -2.18599,0.0171 -3.07617,0.0645 -0.44509,0.0237 -0.83771,0.0542 -1.17773,0.0957 -0.34003,0.0415 -0.49182,-0.0352 -1.09766,0.28906 -1.24567,0.66666 -1.60296,1.744 -2.10156,3.19141 -0.49861,1.4474 -0.95372,3.3641 -1.40625,5.83007 -0.90506,4.93195 -1.77985,12.03794 -2.66016,21.49024 -2.06446,22.16705 -2.94475,29.71231 -4.04883,34.96093 -0.27138,1.29011 -0.46213,3.06607 -0.45507,4.32031 0.003,0.45854 0.006,0.81045 0.0176,1.10156 0.0114,0.29112 -0.0343,0.43254 0.13477,0.92188 0.0423,0.12233 0.0995,0.28343 0.27734,0.50195 0.1778,0.21852 0.56242,0.50648 1.01367,0.56055 0.90251,0.10813 1.22079,-0.36949 1.36719,-0.53321 0.2928,-0.32743 0.31862,-0.45666 0.42188,-0.64648 1.03686,-1.90616 1.69224,-5.10972 2.5,-10.67774 0.80775,-5.56801 1.65678,-13.39268 2.62304,-23.99413 1.83663,-20.15073 3.10158,-28.84296 4.46485,-32.49218 l 0.19922,-0.53516 3.04882,0.0586 3.07422,0.0606 0.3125,0.87891 c 1.26889,3.56201 2.74402,13.49025 4.5,31.89062 0.57223,5.99618 1.29204,12.96506 1.61133,15.57031 0.59066,4.81938 1.26927,8.98659 1.96484,12.16015 0.34779,1.58678 0.69884,2.92266 1.0586,3.99414 0.35976,1.07148 0.64007,1.84722 1.27148,2.54492 1.34745,1.48887 3.74158,1.43414 4.91992,-0.23828 0.69139,-0.98128 1.13034,-2.27603 1.60938,-4.11523 0.47903,-1.8392 0.94354,-4.19728 1.40624,-7.11328 0.92539,-5.83202 1.84278,-13.88873 2.76953,-24.26367 0.96805,-10.83722 1.87983,-19.27246 2.74024,-25.3457 0.8604,-6.07324 1.80625,-9.94903 2.3164,-10.93555 l 0.0449,-0.0859 2.99024,0 c 1.1599,0 2.00583,-0.005 2.53906,0.0352 0.53323,0.0405 0.67055,0.12758 0.65039,0.11328 -0.0202,-0.0143 0.0291,-0.0193 0.16797,0.38477 0.13891,0.40412 0.30535,1.11907 0.54102,2.11133 1.25871,5.29986 2.3426,14.01701 3.89257,31.68945 1.02183,11.65061 1.94345,20.1614 2.85157,26.06444 0.45406,2.95152 0.90171,5.24915 1.37304,6.99415 0.47133,1.74499 0.87203,2.9221 1.69727,3.83398 1.15652,1.27709 3.33711,1.28848 4.49609,0.008 0.80951,-0.89449 1.23936,-2.0628 1.71875,-3.75586 0.47939,-1.69305 0.93136,-3.90314 1.38672,-6.72851 0.91072,-5.65076 1.8233,-13.75413 2.82422,-24.8164 0.97593,-10.78607 1.87734,-18.94773 2.71875,-24.61133 0.42071,-2.8318 0.82788,-5.04229 1.21094,-6.61328 0.33838,-1.38778 0.67789,-2.06743 0.78125,-2.2793 0.0866,-0.0111 0.10563,-0.0193 0.22461,-0.0293 0.60851,-0.0512 1.61406,-0.0801 3.02929,-0.0801 2.38592,0 3.34326,0.17624 3.3086,0.15234 -0.0173,-0.0119 0.0247,-0.0262 0.16406,0.37305 0.13936,0.39925 0.30867,1.11425 0.54883,2.10547 1.29433,5.34209 2.54392,15.28794 4.03906,32.57226 1.12207,12.9716 2.08278,22.06045 3.04102,28.25585 0.47911,3.09771 0.95556,5.47009 1.46875,7.27735 0.41969,1.47803 0.87353,2.51902 1.46679,3.3789 l 0.004,0.18946 0.37695,0.41601 c 0.5259,0.58109 1.31975,1.02862 2.17578,1.01563 0.85604,-0.013 1.59425,-0.44385 2.14454,-0.99414 0.37956,-0.37955 0.76281,-1.04547 0.88476,-1.69532 0.12195,-0.64984 0.12289,-1.32024 0.11328,-2.35546 l -0.0215,-2.39454 -2.93946,-0.41015 -0.16406,0.55469 c -0.33881,-1.36865 -0.68103,-2.95173 -0.90234,-4.29297 -1.10847,-6.7177 -1.78502,-13.06834 -3.66016,-34.42968 -0.82748,-9.42653 -1.71756,-17.00617 -2.63672,-22.51758 -0.45957,-2.7557 -0.92372,-4.99099 -1.40625,-6.71289 -0.48252,-1.7219 -0.8545,-2.8928 -1.71679,-3.81836 -0.35189,-0.37771 -1.21021,-0.90951 -2.08789,-1.01758 -0.87769,-0.10807 -2.02831,-0.10156 -4.23047,-0.10156 -2.68894,0 -4.08567,-0.13662 -5.47266,0.52149 -0.69349,0.32905 -1.24721,0.94673 -1.56641,1.55468 -0.31919,0.60796 -0.50507,1.22338 -0.75195,1.97852 -1.64685,5.03722 -2.75865,13.58423 -4.72656,35.125 -1.06396,11.64627 -1.85741,18.47896 -2.75195,23.77929 -0.24058,1.42542 -0.54178,2.59181 -0.83204,3.77734 -0.0502,-0.23134 -0.0897,-0.31908 -0.14062,-0.56836 -0.60758,-2.97569 -1.26747,-7.21091 -1.83594,-12.01562 -0.40059,-3.38583 -1.19762,-11.49864 -1.76172,-17.95117 -1.71912,-19.66409 -2.92149,-29.17575 -4.46679,-34.08203 -0.26814,-0.8513 -0.46598,-1.52491 -0.76758,-2.16211 -0.30161,-0.6372 -0.79354,-1.28971 -1.48047,-1.67383 -1.37386,-0.76823 -2.73571,-0.60547 -5.24805,-0.60547 z"
         id="path4227"
         inkscape:connector-curvature="0" />
      <path
         style="color:#000000;font-style:normal;font-variant:normal;font-weight:normal;font-stretch:normal;font-size:medium;line-height:normal;font-family:sans-serif;text-indent:0;text-align:start;text-decoration:none;text-decoration-line:none;text-decoration-style:solid;text-decoration-color:#000000;letter-spacing:normal;word-spacing:normal;text-transform:none;direction:ltr;block-progression:tb;writing-mode:lr-tb;baseline-shift:baseline;text-anchor:start;white-space:normal;clip-rule:nonzero;display:inline;overflow:visible;visibility:visible;opacity:1;isolation:auto;mix-blend-mode:normal;color-interpolation:sRGB;color-interpolation-filters:linearRGB;solid-color:#000000;solid-opacity:1;fill:#000000;fill-opacity:1;fill-rule:nonzero;stroke:none;stroke-width:1.49999976;stroke-linecap:butt;stroke-linejoin:miter;stroke-miterlimit:4;stroke-dasharray:none;stroke-dashoffset:0;stroke-opacity:1;color-rendering:auto;image-rendering:auto;shape-rendering:auto;text-rendering:auto;enable-background:accumulate"
         d="m 548.97006,278.37977 c -0.51448,0.008 -0.96438,0.22269 -1.26367,0.42969 -0.29929,0.207 -0.51461,0.4189 -0.75,0.65429 -0.8879,0.8879 -1.24944,2.00543 -1.7207,3.64453 -0.47127,1.63911 -0.92048,3.7736 -1.36524,6.42969 -0.88951,5.31219 -1.75072,12.70272 -2.57812,22.0957 -1.07974,12.25756 -1.97337,21.02414 -2.79492,27.18359 -0.82156,6.15945 -1.61312,9.75185 -2.30274,11.40234 l -0.043,0.10156 -3.20312,0 -3.16211,0 -0.23047,-0.61328 c -1.38003,-3.68844 -2.82026,-13.45766 -4.57421,-32.8535 -1.00031,-11.06182 -1.88546,-19.17527 -2.75195,-24.96094 -0.86649,-5.78567 -1.61759,-9.16639 -2.75977,-11.19727 -0.30606,-0.54419 -0.56895,-1.02894 -1.14844,-1.4414 -0.57949,-0.41246 -1.27104,-0.48438 -1.78906,-0.48438 -0.51261,0 -1.18414,0.0554 -1.76953,0.46875 -0.58539,0.41337 -0.83789,0.91031 -1.10742,1.42969 -1.09541,2.11081 -1.84927,5.50121 -2.69531,11.42578 -0.84605,5.92458 -1.72007,14.34213 -2.76172,26.21485 -0.89232,10.17062 -1.69529,17.87664 -2.45703,23.47655 -0.76175,5.5999 -1.52464,9.1487 -2.1504,10.71289 l -0.0586,0.14453 -3.17773,0 -3.2168,0 -0.1543,-0.34961 c -0.57885,-1.3086 -1.4496,-5.22326 -2.26953,-11.11914 -0.81993,-5.89588 -1.6728,-13.88871 -2.54297,-23.88085 -0.88434,-10.15498 -1.75433,-18.1372 -2.6289,-24.04297 -0.87458,-5.90577 -1.65746,-9.62993 -2.75,-11.77148 -0.3531,-0.69213 -0.78133,-1.2745 -1.37891,-1.69922 -0.59757,-0.42472 -1.4349,-0.64214 -2.19141,-0.46875 -1.513,0.34678 -2.28973,1.64488 -2.80664,3.20508 -1.77208,5.34875 -2.90392,14.34491 -5.02343,38.55078 -0.69677,7.95735 -1.42145,14.526 -2.13672,19.44725 -0.69786,4.80145 -1.455,8.00098 -1.94727,9.16016 -0.38786,0.0401 -1.30504,0.0664 -3.27344,0.0664 l -3.27734,0 -0.0801,-0.1836 c -0.54919,-1.27016 -1.24769,-4.19752 -1.91797,-8.59765 -0.67027,-4.40013 -1.35539,-10.32528 -2.0664,-17.87109 -1.33599,-14.17855 -1.63353,-17.10695 -2.21875,-21.75976 -0.67354,-5.35497 -1.31929,-9.30604 -2.00586,-12.09961 -0.34329,-1.39679 -0.69295,-2.50337 -1.10156,-3.39258 -0.40862,-0.88921 -0.8436,-1.6332 -1.71875,-2.10156 -0.24152,-0.12926 -0.53415,-0.19522 -0.81836,-0.27149 l -0.33594,-0.80468 -0.43945,0.79101 c -0.40852,0.0359 -0.85383,0.0711 -1.18946,0.35742 -0.88933,0.7588 -0.87036,1.63396 -0.86328,2.48828 0.003,0.30411 0.004,0.53879 0.0156,0.75782 0.006,0.10951 0.013,0.21249 0.0371,0.35742 0.0241,0.14493 -0.0159,0.32603 0.32031,0.76367 0.16811,0.21882 0.54068,0.51731 0.99414,0.58398 0.088,0.0129 0.11648,-0.0373 0.19726,-0.0391 1.23658,3.54776 2.59711,12.26909 4.23438,30.00391 1.72303,18.66375 2.82971,26.81978 4.44531,31.72069 0.22718,0.68913 0.39323,1.25821 0.71485,1.84766 0.32161,0.58944 0.92125,1.19043 1.62109,1.47461 1.39967,0.56834 2.80237,0.40768 5.64648,0.36132 l 5.75782,-0.0937 1.03906,-1.85547 c 1.1152,-1.98923 1.81751,-5.34483 2.64648,-11.08399 0.82897,-5.73916 1.67221,-13.75982 2.60157,-24.55663 1.34177,-15.58805 2.57551,-24.81274 3.64648,-29.32617 1.16933,5.04934 2.37139,14.4186 3.9668,32.08984 1.09,12.07319 2.01188,20.45972 2.92968,26.17382 0.77499,4.82497 1.49086,7.45677 2.61915,9.30078 l -0.20118,0.30274 0.77735,0.86523 c 0.3401,0.37844 1.19857,0.93525 2.0625,1.04688 0.86393,0.11162 1.9711,0.10351 4.10742,0.10351 1.25508,0 2.45384,-0.0313 3.40039,-0.0859 0.47327,-0.0273 0.88203,-0.0612 1.22266,-0.10156 0.17031,-0.0202 0.32177,-0.0416 0.47656,-0.0723 0.15478,-0.0306 0.26978,-0.0211 0.61719,-0.20704 0.70822,-0.37903 1.04733,-0.92371 1.36523,-1.52734 0.3179,-0.60363 0.58657,-1.31741 0.84961,-2.1875 0.52607,-1.74017 1.01927,-4.10282 1.51562,-7.17578 0.99271,-6.14591 1.97977,-15.11397 3.00977,-27.16796 1.37336,-16.07227 2.42176,-25.00264 3.63867,-31.1875 0.0665,-0.33796 0.16148,-0.59532 0.23828,-0.92969 0.4406,1.78692 0.88803,3.4557 1.38672,6.82422 0.69894,4.72112 1.40818,10.762 2.04883,17.61133 1.58752,16.97248 2.12393,22.2075 2.79102,27.16601 0.61828,4.59583 1.27359,8.2448 1.96093,10.90234 0.34368,1.32877 0.69028,2.40705 1.08008,3.27344 0.3898,0.86639 0.72851,1.59242 1.6543,2.08789 0.35805,0.19161 0.46599,0.17549 0.61913,0.20508 0.15315,0.0296 0.30385,0.0509 0.47265,0.0703 0.33761,0.0389 0.74339,0.0694 1.21485,0.0957 0.94291,0.0526 2.13889,0.084 3.39453,0.084 1.97135,0 3.10779,-0.008 3.94727,-0.0957 0.41973,-0.044 0.78155,-0.10685 1.15625,-0.25586 0.37469,-0.149 0.73936,-0.42395 0.95312,-0.66015 1.57945,-1.74528 2.24657,-4.68008 3.1543,-10.4043 0.90772,-5.72422 1.82782,-14.18861 2.9414,-26.50585 1.34627,-14.89085 2.07923,-21.40902 3.03516,-27.04101 0.23109,-1.36149 0.49744,-2.413 0.75586,-3.54297 0.47523,2.04889 0.99,4.60407 1.5,7.87695 l 0.40625,2.61328 2.98242,-0.25391 -0.0801,-5.2246 c -0.0705,-4.67028 -0.20487,-5.84326 -0.89257,-8.10157 -0.54392,-1.78615 -0.97803,-2.96476 -1.97266,-3.82031 -0.52317,-0.45001 -1.02573,-0.99197 -2.05469,-0.97656 z"
         id="path4229"
         inkscape:connector-curvature="0" />
      <path
         style="color:#000000;font-style:normal;font-variant:normal;font-weight:normal;font-stretch:normal;font-size:medium;line-height:normal;font-family:sans-serif;text-indent:0;text-align:start;text-decoration:none;text-decoration-line:none;text-decoration-style:solid;text-decoration-color:#000000;letter-spacing:normal;word-spacing:normal;text-transform:none;direction:ltr;block-progression:tb;writing-mode:lr-tb;baseline-shift:baseline;text-anchor:start;white-space:normal;clip-rule:nonzero;display:inline;overflow:visible;visibility:visible;opacity:1;isolation:auto;mix-blend-mode:normal;color-interpolation:sRGB;color-interpolation-filters:linearRGB;solid-color:#000000;solid-opacity:1;fill:#000000;fill-opacity:1;fill-rule:nonzero;stroke:none;stroke-width:1.49999976;stroke-linecap:butt;stroke-linejoin:miter;stroke-miterlimit:4;stroke-dasharray:none;stroke-dashoffset:0;stroke-opacity:1;color-rendering:auto;image-rendering:auto;shape-rendering:auto;text-rendering:auto;enable-background:accumulate"
         d="m 463.66734,36.675261 c -0.91906,-0.26407 -1.78888,0.19187 -2.28907,0.64453 -0.51294,0.46421 -0.69225,0.92583 -0.89453,1.4668 -0.20227,0.54096 -0.37413,1.17398 -0.54101,1.9414 -0.33376,1.53485 -0.64051,3.60075 -0.94141,6.26758 -0.6018,5.33367 -1.16949,13.06135 -1.73242,23.42383 -0.8141,14.98602 -1.23778,19.61332 -1.71484,25.5371 -0.20206,0.0321 -0.48781,0.0779 -0.48829,0.0781 -6.7e-4,2.8e-4 -0.43683,0.27674 -0.4375,0.27735 -6.6e-4,6e-4 -0.16735,0.17438 -0.21679,0.24414 -0.0989,0.13951 -0.13825,0.23241 -0.16797,0.30468 -0.1189,0.28911 -0.0992,0.33998 -0.11133,0.42188 -0.0242,0.16381 -0.0328,0.28749 -0.043,0.45898 -0.0204,0.342989 -0.0345,0.822949 -0.0488,1.472659 -0.0286,1.29942 -0.05,3.26035 -0.0625,5.89453 -0.0256,5.4073 -0.0174,8.41944 0.11719,10.02735 0.0337,0.40197 0.0689,0.70893 0.1543,1.04101 0.0427,0.16604 0.0854,0.33993 0.23828,0.59375 0.15289,0.25382 0.54355,0.71578 1.20898,0.78711 0.66543,0.0713 1.10749,-0.27165 1.30664,-0.46681 0.19915,-0.19513 0.28341,-0.34122 0.36133,-0.47656 0.15585,-0.27066 0.25263,-0.51344 0.36328,-0.80078 0.76386,-1.9835 1.25458,-5.41457 1.81446,-11.41015 0.55988,-5.99559 1.11901,-14.451258 1.73437,-25.986318 0.60865,-11.40937 1.19321,-20.41562 1.73047,-26.75391 0.0167,-0.19664 0.0303,-0.27137 0.0469,-0.46289 0.49219,5.00126 1.07326,12.8337 1.76171,24.75586 1.09854,19.0236 1.73154,26.932678 2.65821,33.074208 0.33941,2.2495 0.64738,3.76389 1.20117,4.92187 0.27689,0.57899 0.6394,1.13257 1.29101,1.49414 0.65162,0.36158 1.50139,0.33369 2.08594,0.10938 0.78335,-0.3006 1.11606,-0.8619 1.38477,-1.39453 0.2687,-0.53263 0.46812,-1.14143 0.66211,-1.89843 0.38797,-1.51404 0.72876,-3.61557 1.06836,-6.49024 0.67919,-5.74934 1.33452,-14.560788 2.07617,-27.347648 0.55214,-9.51962 1.11111,-17.02188 1.63281,-22.72656 0.45599,4.86567 0.8868,10.48343 1.32617,18.22461 0.89494,15.76743 1.56147,25.994278 2.1836,32.583978 0.31106,3.29484 0.60973,5.67902 0.92968,7.42382 0.12084,0.65898 0.3205,0.91084 0.44922,1.4082 l -0.78125,0 1.52149,2.32031 c 0.34067,0.51995 0.77559,1.02038 1.51562,1.25 0.74003,0.22963 1.62823,-0.056 2.1211,-0.48046 0.0297,-0.0256 0.0359,-0.0638 0.0644,-0.0898 l 0.32812,0 -0.15625,-0.23828 c 0.75629,-0.80917 1.11972,-1.80393 1.42969,-3.15625 1.01871,-4.44424 1.81601,-14.26153 2.96485,-34.927728 0.63972,-11.50806 1.25646,-20.18776 1.8125,-26.4043 0.006,0.0627 0.0113,0.0891 0.0176,0.15235 0.52691,5.35887 1.10035,12.79933 1.70899,22.20312 1.18605,18.3254 1.82932,25.462868 2.80273,30.781248 0.31429,1.71713 0.5673,2.8636 0.98047,3.78711 0.20659,0.46175 0.46565,0.89525 0.89649,1.2539 0.43083,0.35866 1.04621,0.5586 1.55273,0.5586 0.63345,0 1.52113,-0.26165 2.05273,-0.83789 0.53161,-0.57625 0.7394,-1.18945 0.98243,-1.94727 0.58717,-1.83101 1.01565,-5.36365 1.53906,-11.08789 0.52341,-5.724238 1.06969,-13.478718 1.62305,-23.099608 0.56025,-9.7408 1.10884,-17.49828 1.61523,-23.26757 0.57907,6.14826 1.18995,14.26635 1.91602,27.47265 0.62055,11.28725 1.21455,19.913998 1.80078,26.062488 0.29311,3.07426 0.5833,5.52828 0.8789,7.40234 0.29561,1.87406 0.54496,3.11095 0.97852,4.0625 0.31845,0.69892 0.82493,1.23155 1.4707,1.56446 0.64577,0.3329 1.57911,0.47902 2.39844,-0.0273 0.69651,-0.43048 0.9077,-0.95186 1.13866,-1.50781 0.23096,-0.55595 0.41792,-1.20606 0.59961,-2.01172 0.36338,-1.61132 0.69375,-3.83416 1.02344,-6.80078 0.65938,-5.93325 1.30008,-14.822378 1.99414,-27.292958 0.63211,-11.35734 1.20338,-19.33356 1.74414,-25.34765 0.55972,6.26429 1.14076,14.28282 1.79101,26.50585 0.53475,10.05173 1.05782,17.759038 1.5918,23.369138 0.53398,5.6101 1.01406,9.01288 1.72461,10.95507 0.20152,0.55083 0.36585,1.01361 0.81055,1.49219 0.44469,0.47858 1.24024,0.72656 1.74414,0.72656 1.09002,0 1.83212,-0.4987 2.37695,-1.33398 0.59361,-0.91005 0.85214,-1.99037 1.17969,-3.68164 0.32755,-1.69127 0.6403,-3.94386 0.95898,-6.87891 0.63738,-5.8701 1.2919,-14.464438 2.04883,-26.521468 0.48067,-7.65642 1.07206,-16.23512 1.30664,-18.97852 0.20552,-2.40344 0.44233,-4.15539 0.67188,-6.18945 0.0768,0.68548 0.15765,1.13513 0.23047,1.85742 0.55438,5.49937 0.99725,11.35714 1.90625,25.20312 0.50566,7.70239 1.05582,14.063439 1.61718,18.800778 0.28069,2.36867 0.56424,4.32938 0.85157,5.86718 0.28732,1.53782 0.52929,2.5988 0.94726,3.45313 0.47991,0.98093 1.31888,1.90646 2.56641,1.91406 1.24753,0.008 2.09808,-0.91208 2.58594,-1.88867 0.29087,-0.58234 0.47827,-1.29011 0.55859,-2.18555 0.0803,-0.89544 0.0928,-2.05069 0.082,-3.86327 l -0.0273,-4.35352 -2.98047,-0.22461 -0.10352,0.6543 c -0.64104,-5.349118 -1.29484,-12.399798 -1.94531,-22.720698 -0.74963,-11.89416 -1.43543,-20.27108 -2.15039,-25.8125 -0.35748,-2.7707 -0.71839,-4.82678 -1.125,-6.32031 -0.20331,-0.74676 -0.41189,-1.35146 -0.68945,-1.88086 -0.27757,-0.52939 -0.61856,-1.07993 -1.39258,-1.37695 -0.87332,-0.33513 -1.84331,-0.0815 -2.47656,0.39258 -0.63326,0.47409 -1.05277,1.13926 -1.29688,1.90625 -1.35382,4.25382 -2.20243,13.40013 -3.59375,35.55859 -0.69135,11.01055 -1.34041,19.487048 -1.92187,25.328118 -0.009,-0.0984 -0.0164,-0.12869 -0.0254,-0.22852 -0.54856,-6.10186 -1.14531,-14.943898 -1.72657,-25.810538 -0.64037,-11.97187 -1.2346,-20.77048 -1.83008,-26.84765 -0.29773,-3.03859 -0.59561,-5.39456 -0.90625,-7.1543 -0.31064,-1.75974 -0.51011,-2.83664 -1.13671,-3.79297 -0.51539,-0.78657 -1.46481,-1.5009 -2.56836,-1.33008 -1.10356,0.17083 -1.75072,1.02288 -2.11329,1.89063 -0.80638,1.92994 -1.27272,5.41574 -1.85156,11.36914 -0.57884,5.9534 -1.1537,14.19226 -1.73633,24.84765 -0.58127,10.63095 -1.21919,19.587239 -1.80272,26.042968 -0.0409,-0.45389 -0.0757,-0.64651 -0.11719,-1.13086 -0.57818,-6.744129 -1.21686,-16.439258 -1.90625,-28.976558 -0.58044,-10.55604 -1.132,-18.51279 -1.68945,-24.22851 -0.55745,-5.71573 -1.03697,-9.06372 -1.80469,-10.98242 -0.39248,-0.98092 -1.08011,-1.90999 -2.2793,-2.07227 -1.19918,-0.16228 -2.20108,0.7056 -2.68359,1.63867 -0.48903,0.94568 -0.71063,2.09849 -1.00781,3.91211 -0.29718,1.81363 -0.58834,4.204 -0.88281,7.19922 -0.58896,5.99044 -1.18495,14.39365 -1.79102,25.25781 -0.62636,11.22783 -1.17058,18.21649 -1.71094,23.646478 -0.55546,-5.193658 -1.12237,-11.911878 -1.82226,-23.076168 -0.65002,-10.36889 -1.23738,-18.01017 -1.82227,-23.46093 -0.58489,-5.45077 -1.09339,-8.61652 -1.88281,-10.50586 -0.34133,-0.81693 -0.87563,-1.63749 -1.91797,-1.90625 -1.04234,-0.26876 -2.01903,0.30492 -2.60742,0.95508 -0.86334,0.95398 -0.98323,1.92893 -1.30274,3.60156 -0.3195,1.67263 -0.62013,3.96508 -0.92578,7.02929 -0.6113,6.12844 -1.23652,15.3306 -1.96875,28.50586 -0.67429,12.13283 -1.16718,18.052199 -1.66797,23.378898 -0.51002,-5.437149 -1.01841,-11.856568 -1.72656,-24.541008 -0.6554,-11.73957 -1.22464,-20.04999 -1.79101,-25.76757 -0.56637,-5.71759 -0.97609,-8.67817 -1.90235,-10.48242 -0.44717,-0.87105 -1.40206,-1.61896 -2.48047,-1.53711 -1.0784,0.0819 -1.85525,0.85717 -2.27343,1.73242 -0.87274,1.82664 -1.29578,4.93531 -1.875,10.64062 -0.57922,5.70531 -1.16643,13.81868 -1.8125,24.83008 -0.57186,9.74656 -1.16599,17.75539 -1.71094,23.572258 -0.54258,-5.812048 -1.12915,-13.815888 -1.68164,-23.570308 -0.95612,-16.88059 -1.71507,-27.37644 -2.56446,-33.49023 -0.42469,-3.05689 -0.81546,-4.97484 -1.4746,-6.31836 -0.32958,-0.67176 -0.78016,-1.35898 -1.69922,-1.62305 z"
         id="path4219"
         inkscape:connector-curvature="0" />
      <path
         style="color:#000000;font-style:normal;font-variant:normal;font-weight:normal;font-stretch:normal;font-size:medium;line-height:normal;font-family:sans-serif;text-indent:0;text-align:start;text-decoration:none;text-decoration-line:none;text-decoration-style:solid;text-decoration-color:#000000;letter-spacing:normal;word-spacing:normal;text-transform:none;direction:ltr;block-progression:tb;writing-mode:lr-tb;baseline-shift:baseline;text-anchor:start;white-space:normal;clip-rule:nonzero;display:inline;overflow:visible;visibility:visible;opacity:1;isolation:auto;mix-blend-mode:normal;color-interpolation:sRGB;color-interpolation-filters:linearRGB;solid-color:#000000;solid-opacity:1;fill:#000000;fill-opacity:1;fill-rule:nonzero;stroke:none;stroke-width:1.49999976;stroke-linecap:butt;stroke-linejoin:miter;stroke-miterlimit:4;stroke-dasharray:none;stroke-dashoffset:0;stroke-opacity:1;color-rendering:auto;image-rendering:auto;shape-rendering:auto;text-rendering:auto;enable-background:accumulate"
         d="m 584.25326,39.256746 c -1.09793,-0.0166 -2.08454,0.13497 -2.94531,0.62695 -0.86076,0.49199 -1.52296,1.45487 -1.62109,2.47071 l -0.375,3.87695 3.57422,-2.10937 c 0.70561,-0.41633 1.13904,-0.45365 1.71289,-0.26368 0.57385,0.18998 1.35127,0.74793 2.22265,1.86133 1.74278,2.22681 3.7347,6.51973 5.80079,12.81641 1.70719,5.20291 2.32731,7.56149 6.31054,24.00781 3.5949,14.842934 7.06172,24.204254 11.2246,28.476554 1.75225,1.79831 3.94879,2.71654 6.13672,2.39844 2.18793,-0.3181 4.17479,-1.741 5.9082,-3.93945 4.14365,-5.2553 7.46747,-14.379214 11.78907,-31.419924 4.12184,-16.25302 7.08207,-24.51283 10.31251,-29.34765 1.21043,-1.8116 2.33348,-2.8618 3.16406,-3.26563 0.83057,-0.40382 1.32124,-0.38151 2.16797,0.13477 1.02474,0.62482 3.01147,3.43205 4.86718,7.93555 1.85572,4.50349 3.77375,10.67756 5.58399,18.14257 0.98737,4.07172 2.63635,10.86439 3.66601,15.0957 1.97036,8.097 3.97125,14.499134 6.04688,19.273444 1.41787,3.26135 2.85426,5.72994 4.44336,7.50976 l -0.74024,0.18555 3.06055,1.86719 c 0.93984,0.57313 1.99799,0.74648 3.06836,0.74218 1.07037,-0.004 2.15566,-0.20532 3.13281,-0.70898 2.02087,-1.04164 3.69908,-3.08282 5.35156,-6.03711 1.65248,-2.95429 3.26174,-6.87187 4.89843,-11.83203 1.71747,-5.204934 2.64625,-8.755954 7.08399,-27.113284 1.81183,-7.49491 3.60759,-13.46071 5.54297,-18.44335 0.94155,-2.42405 1.2431,-3.68103 1.16015,-5.12696 l -0.0879,-1.54101 -2.87695,-0.50195 -1.41992,3.33007 c -2.87757,6.74666 -5.37319,15.21594 -8.40039,28.41797 -3.77704,16.4721 -7.1889,26.674474 -10.30273,31.537104 -1.01765,1.5892 -1.79528,2.52712 -2.39844,2.9961 -0.60315,0.46897 -0.99895,0.58593 -1.83203,0.58593 -0.49448,0 -0.41199,0.0107 -0.53906,-0.0644 -0.12707,-0.0752 -0.54213,-0.42914 -1.29102,-1.19922 -3.27276,-3.36541 -7.23858,-13.89453 -11.46289,-32.689454 -2.45764,-10.93465 -4.80225,-19.24786 -7.1582,-25.21288 -2.35595,-5.96502 -4.61252,-9.68495 -7.61719,-11.23047 -1.52513,-0.78449 -3.23078,-0.98979 -4.81836,-0.51367 -1.58757,0.47612 -3.0125,1.54793 -4.33984,3.0625 -2.65467,3.02912 -5.04301,7.92624 -7.41603,14.80664 -1.59995,4.63894 -3.10433,9.93807 -5.25195,18.4707 -3.89372,15.46997 -7.07155,24.044764 -10.41797,28.761714 -1.33538,1.88229 -2.55806,2.72874 -3.39062,2.89453 -0.83256,0.16579 -1.59365,-0.0812 -2.69531,-1.33594 -2.85241,-3.24872 -6.4362,-12.203084 -9.64453,-25.374994 -0.79743,-3.27388 -2.2319,-9.15036 -3.18945,-13.0625 -2.33228,-9.52862 -4.74171,-16.78912 -7.27344,-21.79687 -1.26586,-2.50388 -2.5569,-4.45087 -3.96875,-5.84961 -1.41184,-1.39874 -3.02348,-2.2785 -4.75586,-2.30469 z"
         id="path4221"
         inkscape:connector-curvature="0" />
      <path
         style="color:#000000;font-style:normal;font-variant:normal;font-weight:normal;font-stretch:normal;font-size:medium;line-height:normal;font-family:sans-serif;text-indent:0;text-align:start;text-decoration:none;text-decoration-line:none;text-decoration-style:solid;text-decoration-color:#000000;letter-spacing:normal;word-spacing:normal;text-transform:none;direction:ltr;block-progression:tb;writing-mode:lr-tb;baseline-shift:baseline;text-anchor:start;white-space:normal;clip-rule:nonzero;display:inline;overflow:visible;visibility:visible;opacity:1;isolation:auto;mix-blend-mode:normal;color-interpolation:sRGB;color-interpolation-filters:linearRGB;solid-color:#000000;solid-opacity:1;fill:#000000;fill-opacity:1;fill-rule:nonzero;stroke:none;stroke-width:1.49999976;stroke-linecap:butt;stroke-linejoin:miter;stroke-miterlimit:4;stroke-dasharray:none;stroke-dashoffset:0;stroke-opacity:1;color-rendering:auto;image-rendering:auto;shape-rendering:auto;text-rendering:auto;enable-background:accumulate"
         d="m 678.53061,247.51844 c -0.99537,0.11879 -1.97051,0.84701 -2.51367,1.76758 -0.54317,0.92056 -0.89763,2.05655 -1.30079,3.6582 -1.37487,5.46212 -2.33086,13.628 -3.99414,33.58399 -1.71932,20.62839 -2.81455,29.82595 -4.06054,34.75976 -0.14657,0.58035 -0.16545,0.56216 -0.2793,0.94531 -0.1718,-0.26283 -0.18642,-0.18493 -0.37305,-0.58593 -0.55536,-1.19334 -1.16943,-2.9346 -1.79687,-5.14454 -1.25489,-4.41987 -2.57531,-10.72044 -3.86133,-18.58789 -1.53303,-9.37861 -2.86401,-16.15947 -4.17969,-20.98632 -1.31568,-4.82686 -2.52309,-7.73249 -4.33203,-9.42383 -0.8513,-0.79595 -1.93707,-1.31801 -3.08984,-1.16211 -1.15277,0.15589 -2.07809,0.99761 -2.60743,2.02148 -0.63025,1.21905 -1.06339,2.94462 -1.54102,5.49805 -0.47763,2.55343 -0.95023,5.88735 -1.42578,10.05859 -0.9511,8.34249 -1.91737,20.02694 -2.93164,35.32618 -1.54271,23.26988 -3.11538,38.65195 -4.47461,44.58592 -0.12307,0.5373 -0.2094,0.8142 -0.3125,1.21485 -1.17524,-2.15483 -2.50963,-6.13261 -3.86524,-12.91407 -1.51147,-7.56118 -3.10473,-18.23313 -4.92187,-32.75194 -3.51435,-28.07931 -5.87441,-40.72729 -9.22656,-47.11719 -0.59642,-1.13689 -1.26262,-2.04519 -2.0918,-2.69922 -0.82918,-0.65402 -1.8934,-1.02378 -2.93945,-0.89648 -2.09211,0.25461 -3.57611,1.98646 -4.8789,4.48047 -2.97976,5.70433 -5.11829,14.60961 -8.33789,33.86328 -2.64163,15.79729 -4.5569,24.20748 -6.73047,29.84374 -0.76316,1.97895 -1.58485,3.43859 -2.17773,4.13867 -0.20799,0.24559 -0.27581,0.27083 -0.35352,0.32617 -0.0786,-0.0491 -0.0905,-0.0866 -0.22265,-0.14257 -0.1792,-0.0759 -0.45659,-0.1705 -0.84961,-0.1211 -0.39303,0.0494 -0.82407,0.31613 -1.03516,0.57617 -0.42218,0.52008 -0.36803,0.79806 -0.39062,1.01563 -0.0226,0.21757 -0.0234,0.40052 -0.0234,0.61719 0,0.74635 0.21776,1.70569 1.0332,2.26172 0.81545,0.55602 1.67403,0.45184 2.4082,0.26757 1.56895,-0.39378 2.784,-1.6035 3.84571,-3.30664 1.0617,-1.70314 2.02134,-3.99284 2.97461,-6.98437 1.90652,-5.98306 3.76431,-14.77676 5.77343,-26.9453 3.1759,-19.23532 5.79932,-29.53423 8.25391,-33.81836 0.65665,-1.1461 1.15392,-1.41597 1.12499,-1.43946 0.096,0.0874 0.24784,0.23121 0.45898,0.59375 2.7547,4.72977 5.40115,17.56088 9.10938,47.22461 2.80285,22.42116 4.85509,34.20725 7.36914,41.93945 0.49426,1.52013 1.09415,2.96503 1.71484,4.16406 0.62069,1.19902 1.15063,2.12399 2.02344,2.81055 0.78934,0.62089 1.75833,0.99603 2.75781,0.87109 0.99949,-0.12494 1.88432,-0.78365 2.4043,-1.63867 0.7017,-1.15385 1.14014,-2.74013 1.625,-5.12696 0.48486,-2.38683 0.9534,-5.53397 1.42773,-9.54882 0.94867,-8.0297 1.91272,-19.5247 2.96876,-35.14257 1.8385,-27.18994 3.47269,-42.18956 4.91797,-47.41406 0.21369,0.35894 0.33976,0.43448 0.58399,1.01367 0.5228,1.23981 1.08929,2.9524 1.66992,5.08984 1.16127,4.27489 2.39084,10.25621 3.64063,17.79688 2.13936,12.9081 3.39651,18.83306 5.16015,24.19921 1.03316,3.14356 2.25514,5.43545 3.84766,6.76757 0.79625,0.66606 1.83251,1.13513 2.9375,0.92188 1.10499,-0.21326 1.92587,-1.05399 2.44336,-2.05469 1.08258,-2.09348 1.78527,-5.68525 2.61718,-11.94726 0.83192,-6.262 1.69183,-15.09337 2.66602,-27.15429 0.85383,-10.57079 1.73455,-19.15429 2.57227,-25.25391 0.41885,-3.04981 0.82682,-5.4814 1.20703,-7.20117 0.11436,-0.51731 0.21623,-0.82813 0.32226,-1.20899 0.6888,1.23003 1.51926,3.22611 2.22657,5.61915 1.9132,6.47293 3.47372,14.88576 5.93945,32.19921 2.43355,17.08753 4.12294,25.97845 6.28515,32.89063 0.30288,0.96821 0.55046,1.72108 0.76172,2.29296 0.10563,0.28594 0.20081,0.52528 0.30274,0.74414 0.10192,0.21885 0.15581,0.39686 0.45508,0.71484 0.14963,0.15899 0.39942,0.4427 0.99999,0.50782 0.60057,0.0651 1.23912,-0.36841 1.44336,-0.65821 0.40846,-0.5796 0.31275,-0.76647 0.33593,-1.00195 0.0464,-0.47095 0.0296,-0.96678 -0.004,-1.66602 -0.0738,-1.54086 -0.58371,-4.14839 -1.20899,-6.54881 -1.52566,-5.85704 -2.84514,-13.22286 -4.82811,-27.0293 -0.97134,-6.76292 -2.08435,-14.15234 -2.49024,-16.5293 -1.52409,-8.9255 -3.04122,-15.5177 -4.64258,-19.95508 -0.80068,-2.21869 -1.6074,-3.90205 -2.5625,-5.1289 -0.95509,-1.22686 -2.28193,-2.11121 -3.7539,-1.93555 z M 588.3978,343.8739 c 0.0462,0.0384 0.11969,0.038 0.16992,0.0723 -0.005,-0.002 -0.0226,-0.002 -0.0274,-0.004 -0.23928,-0.10133 -0.20044,-0.11639 -0.14257,-0.0684 z"
         id="path4231"
         inkscape:connector-curvature="0" />
      <flowRoot
         xml:space="preserve"
         id="flowRoot4182"
         style="fill:#ff6600;stroke:none;stroke-opacity:1;stroke-width:1px;stroke-linejoin:miter;stroke-linecap:butt;fill-opacity:1;font-family:Dingbats;font-style:normal;font-weight:normal;font-size:20px;line-height:0%;letter-spacing:0px;word-spacing:0px;text-anchor:start;text-align:start;writing-mode:lr;-inkscape-font-specification:'Dingbats, Normal';font-stretch:normal;font-variant:normal;"><flowRegion
           id="flowRegion4184"><rect
             id="rect4186"
             width="124.28571"
             height="135"
             x="107.14286"
             y="359.20135"
             style="fill:#ff6600;" /></flowRegion><flowPara
           id="flowPara4188" /></flowRoot>    </g>
  </g>
</svg>
