<?xml version="1.0" encoding="UTF-8" standalone="no"?>
<!-- Created with Inkscape (http://www.inkscape.org/) -->

<svg
   xmlns:dc="http://purl.org/dc/elements/1.1/"
   xmlns:cc="http://creativecommons.org/ns#"
   xmlns:rdf="http://www.w3.org/1999/02/22-rdf-syntax-ns#"
   xmlns:svg="http://www.w3.org/2000/svg"
   xmlns="http://www.w3.org/2000/svg"
   xmlns:sodipodi="http://sodipodi.sourceforge.net/DTD/sodipodi-0.dtd"
   xmlns:inkscape="http://www.inkscape.org/namespaces/inkscape"
   width="210mm"
   height="297mm"
   id="svg2"
   version="1.1"
   inkscape:version="0.48.4 r9939"
   sodipodi:docname="thumnail.svg">
  <defs
     id="defs4" />
  <sodipodi:namedview
     id="base"
     pagecolor="#ffffff"
     bordercolor="#666666"
     borderopacity="1.0"
     inkscape:pageopacity="0.0"
     inkscape:pageshadow="2"
     inkscape:zoom="0.49497475"
     inkscape:cx="746.82337"
     inkscape:cy="128.04256"
     inkscape:document-units="px"
     inkscape:current-layer="layer1"
     showgrid="false"
     inkscape:window-width="954"
     inkscape:window-height="1119"
     inkscape:window-x="0"
     inkscape:window-y="0"
     inkscape:window-maximized="0" />
  <metadata
     id="metadata7">
    <rdf:RDF>
      <cc:Work
         rdf:about="">
        <dc:format>image/svg+xml</dc:format>
        <dc:type
           rdf:resource="http://purl.org/dc/dcmitype/StillImage" />
        <dc:title></dc:title>
      </cc:Work>
    </rdf:RDF>
  </metadata>
  <g
     inkscape:label="Calque 1"
     inkscape:groupmode="layer"
     id="layer1">
    <rect
       style="fill:#1a1a1a;fill-opacity:1;stroke:none"
       id="rect3947"
       width="685.71429"
       height="685.71429"
       x="29.190098"
       y="183.32394"
       inkscape:export-filename="/home/jfrey/Downloads/g3949.png"
       inkscape:export-xdpi="39.375004"
       inkscape:export-ydpi="39.375004" />
    <g
       id="g3949"
       transform="matrix(0.42857143,0,0,0.42857143,-590.47285,89.484668)"
       inkscape:export-xdpi="39.375004"
       inkscape:export-ydpi="39.375004">
      <path
         style="fill:#333333"
         transform="matrix(0.89843156,0,0,0.89843156,2545.5755,1062.5647)"
         d="m -243.99998,368.36219 -105.245,56.48911 -100.74982,-64.16385 -119.44162,1.10883 -59.3911,-103.63505 -106.27561,-54.52546 -4.4266,-119.364704 -68.76313,-97.66864 51.55199,-107.749336 -15.49785,-118.4371 95.72063,-71.4499 41.3178,-112.07306 117.96083,-18.78215 88.66805,-80.03442 113.17762,38.18836 115.70551,-29.66086 82.46679,86.41038 116.23623142,27.50764 L 31.878553,-284.6412 122.01719,-206.26672 97.749314,-89.311193 141.14068,21.975469 65.300596,114.25661 52.00425,232.96102 -58.033989,279.42727 -124.97201,378.35569 z"
         inkscape:randomized="0"
         inkscape:rounded="0"
         inkscape:flatsided="false"
         sodipodi:arg2="1.6080361"
         sodipodi:arg1="1.3663751"
         sodipodi:r2="478.53519"
         sodipodi:r1="430.68167"
         sodipodi:cy="-53.352104"
         sodipodi:cx="-331.42856"
         sodipodi:sides="13"
         id="path2985-93"
         sodipodi:type="star" />
      <path
         style="fill:#4d4d4d"
         transform="matrix(0.84411181,0,0,0.84411181,2527.4557,1059.9283)"
         d="m -248.85712,344.93362 -100.38786,79.91768 -94.1628,-87.16605 -126.02864,24.11103 -42.86894,-120.94134 -122.79777,-37.21917 18.24569,-127.010435 -91.43542,-90.022909 75.18045,-103.982956 -39.12631,-122.20348 114.89226,-57.13425 22.14617,-126.38871 128.28366,2.80324 78.34522,-101.61981 112.2868,62.09853 116.59633,-53.57103 70.5664,107.1678 128.13662142,6.75022 L 11.694826,-271.7918 122.01719,-206.26672 73.9061,-87.313466 141.14068,21.975469 43.260089,104.94501 52.00425,232.96102 -73.222575,260.93953 -124.97201,378.35569 z"
         inkscape:randomized="0"
         inkscape:rounded="0"
         inkscape:flatsided="false"
         sodipodi:arg2="1.6080361"
         sodipodi:arg1="1.3663751"
         sodipodi:r2="478.53519"
         sodipodi:r1="406.75491"
         sodipodi:cy="-53.352104"
         sodipodi:cx="-331.42856"
         sodipodi:sides="13"
         id="path2985-9-7"
         sodipodi:type="star" />
      <path
         style="fill:#999999"
         transform="matrix(0.76564996,0,0,0.76564996,2501.2827,1056.12)"
         d="m -253.71426,321.50505 -95.53072,103.34625 -87.57579,-110.16825 -132.61565,47.11323 -26.34678,-138.24764 -139.31993,-19.91287 40.91797,-134.656166 -114.1077,-82.377178 98.80891,-100.216576 -62.75477,-125.96986 134.0639,-42.81859 2.97453,-140.70437 138.60648,24.38863 68.0224,-123.2052 111.39598,86.0087 117.48715,-77.4812 58.66601,127.92522 140.03701142,-14.0072 L -8.4889012,-258.94241 122.01719,-206.26672 50.062887,-85.315739 141.14068,21.975469 21.219582,95.633417 52.00425,232.96102 l -140.415412,9.49077 -36.560848,135.9039 z"
         inkscape:randomized="0"
         inkscape:rounded="0"
         inkscape:flatsided="false"
         sodipodi:arg2="1.6080361"
         sodipodi:arg1="1.3663751"
         sodipodi:r2="478.53519"
         sodipodi:r1="382.82816"
         sodipodi:cy="-53.352104"
         sodipodi:cx="-331.42856"
         sodipodi:sides="13"
         id="path2985-9-5-5"
         sodipodi:type="star" />
      <path
         style="fill:#ffffff"
         transform="matrix(0.68769466,0,0,0.68769466,2475.2832,1052.3263)"
         d="m -251.7714,330.87648 c -13.2578,2.74857 -83.94326,94.47892 -97.47358,93.97482 -13.53032,-0.50409 -77.19409,-97.23989 -90.2106,-100.96736 -13.01651,-3.72747 -118.23461,44.64655 -129.98084,37.91234 -11.74624,-6.73421 -23.16234,-121.97553 -32.95564,-131.32512 -9.79331,-9.34958 -125.43984,-15.4138 -132.71107,-26.83539 -7.27123,-11.4216 36.17563,-118.768049 31.84905,-131.597872 -4.32657,-12.829824 -103.9083,-71.94304182 -105.03878,-85.435472 -1.13047,-13.492429 87.22619,-88.352226 89.35752,-101.723136 2.13132,-13.3709 -58.57264,-111.99099 -53.30338,-124.4633 5.26926,-12.47232 118.29428,-37.69598 126.39524,-48.54486 8.10097,-10.84887 0.18132,-126.38316 10.64319,-134.9781 10.46187,-8.59494 122.26258,21.59596 134.47735,15.75447 12.21477,-5.8415 58.89373,-111.82247 72.15153,-114.57104 13.25779,-2.74857 98.22199,75.94053 111.75231,76.44463 13.53032,0.5041 104.1143,-71.6446 117.13082,-67.91713 13.01651,3.72747 51.67993,112.88804 63.42617,119.62224 11.74623,6.73422 125.483541,-15.05381 135.27685142,-5.70422 9.79330888,9.34958 -6.70137772,123.97425 0.56985332,135.39585 C 6.8558267,-252.66058 117.69061,-219.09655 122.01719,-206.26672 126.34376,-193.4369 58.469702,-99.607259 59.600178,-86.11483 60.730654,-72.6224 143.272,8.6045629 141.14068,21.975469 139.00935,35.346372 35.305048,86.885747 30.035791,99.358058 24.766532,111.83037 60.105212,222.11215 52.00425,232.96102 c -8.100962,10.84888 -123.878106,8.29093 -134.339973,16.88587 -10.461869,8.59494 -30.421517,122.6673 -42.636287,128.5088 -12.21477,5.8415 -113.5416,-50.22777 -126.79939,-47.47921 z"
         inkscape:randomized="0"
         inkscape:rounded="0.1"
         inkscape:flatsided="false"
         sodipodi:arg2="1.6080361"
         sodipodi:arg1="1.3663751"
         sodipodi:r2="478.53519"
         sodipodi:r1="392.39886"
         sodipodi:cy="-53.352104"
         sodipodi:cx="-331.42856"
         sodipodi:sides="13"
         id="path2985-9-5-4-9"
         sodipodi:type="star" />
    </g>
  </g>
</svg>
